<?xml version="1.0" encoding="UTF-8" standalone="no"?>
<!-- Created with Inkscape (http://www.inkscape.org/) -->

<svg
   width="512"
   height="511.99988"
   viewBox="0 0 135.46665 135.46662"
   version="1.1"
   id="svg5"
   xml:space="preserve"
   xmlns:xlink="http://www.w3.org/1999/xlink"
   xmlns="http://www.w3.org/2000/svg"
   xmlns:svg="http://www.w3.org/2000/svg"><defs
     id="defs2"><linearGradient
       id="linearGradient7391"><stop
         style="stop-color:#696969;stop-opacity:1;"
         offset="0"
         id="stop7387" /><stop
         style="stop-color:#373737;stop-opacity:0.66666675;"
         offset="0.64271051"
         id="stop7395" /><stop
         style="stop-color:#696969;stop-opacity:0;"
         offset="1"
         id="stop7389" /></linearGradient><linearGradient
       id="linearGradient17330"><stop
         style="stop-color:#000000;stop-opacity:1;"
         offset="0"
         id="stop17328" /></linearGradient><radialGradient
       xlink:href="#linearGradient7391"
       id="radialGradient7393"
       cx="67.641045"
       cy="389.03311"
       fx="67.641045"
       fy="389.03311"
       r="22.833717"
       gradientTransform="matrix(1.849768,0.01493785,-0.01556232,1.9270978,-51.405618,-352.49036)"
       gradientUnits="userSpaceOnUse" /><radialGradient
       xlink:href="#linearGradient7391"
       id="radialGradient7393-2"
       cx="67.641045"
       cy="389.03311"
       fx="67.641045"
       fy="389.03311"
       r="22.833717"
       gradientTransform="matrix(1.849768,0.01493785,-0.01556232,1.9270978,-51.405618,-352.49036)"
       gradientUnits="userSpaceOnUse" /></defs><g
     id="g3136"
     transform="translate(-0.0533265,-381.08484)"
     style="display:inline"><path
       style="display:inline;fill:url(#radialGradient7393-2);fill-opacity:1;stroke-width:1.056;stroke-linecap:round;stroke-linejoin:round;stroke-miterlimit:10;paint-order:markers stroke fill"
       d="m 44.894852,370.01997 c 0.0311,-1.29148 0.103639,-4.30377 0.553556,-6.69339 0.449918,-2.38962 1.282273,-4.36987 1.784614,-4.5581 0.502341,-0.18823 0.674838,1.41521 1.422879,2.83806 0.74804,1.42286 2.070264,2.66372 2.358598,2.27545 0.288333,-0.38827 -0.457572,-2.40509 -0.456291,-4.14375 0.0013,-1.73867 0.750353,-3.19706 1.242128,-2.92487 0.491774,0.2722 0.726482,2.27501 1.145716,3.73505 0.419234,1.46005 1.022295,2.37626 1.215116,1.95879 0.19282,-0.41747 -0.02482,-2.16782 0.272112,-3.80477 0.296926,-1.63695 1.10858,-3.15874 1.480484,-3.02547 0.371903,0.13327 0.304306,1.92152 0.528735,3.72408 0.224429,1.80257 0.740622,3.61855 0.945169,3.25754 0.204547,-0.36102 0.09751,-2.89921 0.695666,-4.78696 0.598157,-1.88775 1.901325,-3.12421 2.347098,-2.96984 0.445772,0.15437 0.03425,1.69937 -0.06188,3.19941 -0.09613,1.50004 0.122985,2.95395 0.282496,2.8352 0.159512,-0.11875 0.259259,-1.81001 0.775732,-3.28593 0.516473,-1.47593 1.44951,-2.73536 1.724309,-2.32126 0.2748,0.4141 -0.108657,2.50159 0.06128,3.87228 0.169937,1.3707 0.918431,2.04734 1.097599,1.80841 0.179168,-0.23892 -0.157765,-1.34073 -0.101216,-2.73066 0.05655,-1.38994 0.533839,-2.88836 0.752043,-2.85007 0.218205,0.0383 0.259135,1.5836 0.386948,3.08101 0.127814,1.49741 0.338646,2.80993 0.466265,2.72141 0.127619,-0.0885 0.285767,-1.77969 0.605713,-2.77577 0.319946,-0.99609 0.813673,-1.54411 1.313601,-2.09902 v 36.69344 c -1.95747,0.0243 -3.914679,0.0487 -6.279449,-0.52271 -2.364771,-0.57136 -5.136783,-1.73852 -7.896744,-3.5987 -2.75996,-1.86017 -5.507659,-4.41335 -6.954616,-7.46508 -1.446958,-3.05173 -1.592854,-6.60186 -1.738763,-10.15231 z m 45.676944,0 c -0.0311,-1.29148 -0.103639,-4.30377 -0.553556,-6.69339 -0.449918,-2.38962 -1.282273,-4.36987 -1.784614,-4.5581 -0.502341,-0.18823 -0.674838,1.41521 -1.422879,2.83806 -0.74804,1.42286 -2.070264,2.66372 -2.358598,2.27545 -0.288333,-0.38827 0.457572,-2.40509 0.456291,-4.14375 -0.0013,-1.73867 -0.750353,-3.19706 -1.242128,-2.92487 -0.491774,0.2722 -0.726482,2.27501 -1.145716,3.73505 -0.419234,1.46005 -1.022295,2.37626 -1.215116,1.95879 -0.19282,-0.41747 0.02482,-2.16782 -0.272112,-3.80477 -0.296926,-1.63695 -1.10858,-3.15874 -1.480484,-3.02547 -0.371903,0.13327 -0.304306,1.92152 -0.528735,3.72408 -0.224429,1.80257 -0.740622,3.61855 -0.945169,3.25754 -0.204547,-0.36102 -0.09751,-2.89921 -0.695666,-4.78696 -0.598157,-1.88775 -1.901325,-3.12421 -2.347098,-2.96984 -0.445772,0.15437 -0.03425,1.69937 0.06188,3.19941 0.09613,1.50004 -0.122985,2.95395 -0.282496,2.8352 -0.159512,-0.11875 -0.259259,-1.81001 -0.775732,-3.28593 -0.516473,-1.47593 -1.44951,-2.73536 -1.724309,-2.32126 -0.2748,0.4141 0.108657,2.50159 -0.06128,3.87228 -0.169937,1.3707 -0.918431,2.04734 -1.097599,1.80841 -0.179168,-0.23892 0.157765,-1.34073 0.101216,-2.73066 -0.05655,-1.38994 -0.533839,-2.88836 -0.752043,-2.85007 -0.218205,0.0383 -0.259135,1.5836 -0.386948,3.08101 -0.127814,1.49741 -0.338646,2.80993 -0.466265,2.72141 -0.127619,-0.0885 -0.285767,-1.77969 -0.605713,-2.77577 -0.319946,-0.99609 -0.813673,-1.54411 -1.313601,-2.09902 v 36.69344 c 1.95747,0.0243 3.914679,0.0487 6.279449,-0.52271 2.364771,-0.57136 5.136783,-1.73852 7.896744,-3.5987 2.75996,-1.86017 5.507659,-4.41335 6.954616,-7.46508 1.446958,-3.05173 1.592854,-6.60186 1.738763,-10.15231 z"
       id="path7380-5"
       class="UnoptimicedTransforms"
       transform="matrix(0.95534292,0,0,0.71715689,2.7441203,190.65385)" /><path
       style="display:inline;fill:url(#radialGradient7393);fill-opacity:1;stroke-width:1.056;stroke-linecap:round;stroke-linejoin:round;stroke-miterlimit:10;paint-order:markers stroke fill"
       d="m 44.894852,370.01997 c 0.0311,-1.29148 0.103639,-4.30377 0.553556,-6.69339 0.449918,-2.38962 1.282273,-4.36987 1.784614,-4.5581 0.502341,-0.18823 0.674838,1.41521 1.422879,2.83806 0.74804,1.42286 2.070264,2.66372 2.358598,2.27545 0.288333,-0.38827 -0.457572,-2.40509 -0.456291,-4.14375 0.0013,-1.73867 0.750353,-3.19706 1.242128,-2.92487 0.491774,0.2722 0.726482,2.27501 1.145716,3.73505 0.419234,1.46005 1.022295,2.37626 1.215116,1.95879 0.19282,-0.41747 -0.02482,-2.16782 0.272112,-3.80477 0.296926,-1.63695 1.10858,-3.15874 1.480484,-3.02547 0.371903,0.13327 0.304306,1.92152 0.528735,3.72408 0.224429,1.80257 0.740622,3.61855 0.945169,3.25754 0.204547,-0.36102 0.09751,-2.89921 0.695666,-4.78696 0.598157,-1.88775 1.901325,-3.12421 2.347098,-2.96984 0.445772,0.15437 0.03425,1.69937 -0.06188,3.19941 -0.09613,1.50004 0.122985,2.95395 0.282496,2.8352 0.159512,-0.11875 0.259259,-1.81001 0.775732,-3.28593 0.516473,-1.47593 1.44951,-2.73536 1.724309,-2.32126 0.2748,0.4141 -0.108657,2.50159 0.06128,3.87228 0.169937,1.3707 0.918431,2.04734 1.097599,1.80841 0.179168,-0.23892 -0.157765,-1.34073 -0.101216,-2.73066 0.05655,-1.38994 0.533839,-2.88836 0.752043,-2.85007 0.218205,0.0383 0.259135,1.5836 0.386948,3.08101 0.127814,1.49741 0.338646,2.80993 0.466265,2.72141 0.127619,-0.0885 0.285767,-1.77969 0.605713,-2.77577 0.319946,-0.99609 0.813673,-1.54411 1.313601,-2.09902 v 36.69344 c -1.95747,0.0243 -3.914679,0.0487 -6.279449,-0.52271 -2.364771,-0.57136 -5.136783,-1.73852 -7.896744,-3.5987 -2.75996,-1.86017 -5.507659,-4.41335 -6.954616,-7.46508 -1.446958,-3.05173 -1.592854,-6.60186 -1.738763,-10.15231 z m 45.676944,0 c -0.0311,-1.29148 -0.103639,-4.30377 -0.553556,-6.69339 -0.449918,-2.38962 -1.282273,-4.36987 -1.784614,-4.5581 -0.502341,-0.18823 -0.674838,1.41521 -1.422879,2.83806 -0.74804,1.42286 -2.070264,2.66372 -2.358598,2.27545 -0.288333,-0.38827 0.457572,-2.40509 0.456291,-4.14375 -0.0013,-1.73867 -0.750353,-3.19706 -1.242128,-2.92487 -0.491774,0.2722 -0.726482,2.27501 -1.145716,3.73505 -0.419234,1.46005 -1.022295,2.37626 -1.215116,1.95879 -0.19282,-0.41747 0.02482,-2.16782 -0.272112,-3.80477 -0.296926,-1.63695 -1.10858,-3.15874 -1.480484,-3.02547 -0.371903,0.13327 -0.304306,1.92152 -0.528735,3.72408 -0.224429,1.80257 -0.740622,3.61855 -0.945169,3.25754 -0.204547,-0.36102 -0.09751,-2.89921 -0.695666,-4.78696 -0.598157,-1.88775 -1.901325,-3.12421 -2.347098,-2.96984 -0.445772,0.15437 -0.03425,1.69937 0.06188,3.19941 0.09613,1.50004 -0.122985,2.95395 -0.282496,2.8352 -0.159512,-0.11875 -0.259259,-1.81001 -0.775732,-3.28593 -0.516473,-1.47593 -1.44951,-2.73536 -1.724309,-2.32126 -0.2748,0.4141 0.108657,2.50159 -0.06128,3.87228 -0.169937,1.3707 -0.918431,2.04734 -1.097599,1.80841 -0.179168,-0.23892 0.157765,-1.34073 0.101216,-2.73066 -0.05655,-1.38994 -0.533839,-2.88836 -0.752043,-2.85007 -0.218205,0.0383 -0.259135,1.5836 -0.386948,3.08101 -0.127814,1.49741 -0.338646,2.80993 -0.466265,2.72141 -0.127619,-0.0885 -0.285767,-1.77969 -0.605713,-2.77577 -0.319946,-0.99609 -0.813673,-1.54411 -1.313601,-2.09902 v 36.69344 c 1.95747,0.0243 3.914679,0.0487 6.279449,-0.52271 2.364771,-0.57136 5.136783,-1.73852 7.896744,-3.5987 2.75996,-1.86017 5.507659,-4.41335 6.954616,-7.46508 1.446958,-3.05173 1.592854,-6.60186 1.738763,-10.15231 z"
       id="path7380"
       class="UnoptimicedTransforms"
       transform="translate(0.04761964,79.808195)" /><path
       style="display:inline;fill:#000000;fill-opacity:0;fill-rule:evenodd;stroke:none;stroke-width:1.056;stroke-linecap:round;stroke-linejoin:round;stroke-miterlimit:10;stroke-dasharray:none;stroke-opacity:1;paint-order:markers stroke fill"
       d="m 55.812964,427.46069 c -2.284129,1.19271 -4.342109,2.97005 -6.010326,4.41999 -1.668216,1.44995 -2.946608,2.57245 -4.030215,4.47464 -1.083606,1.90219 -1.972239,4.58368 -2.167083,7.8033 -0.194843,3.21962 0.304037,6.97685 0.810764,9.83001 0.506728,2.85316 1.021208,4.80194 1.715042,6.65726 0.693834,1.85532 1.566886,3.61702 2.642717,5.09034 1.075832,1.47331 2.354219,2.65816 3.726259,3.52339 1.37204,0.86524 2.837505,1.41089 4.279667,1.80843 1.442162,0.39754 2.860882,0.64699 4.240681,0.98222 1.3798,0.33523 2.72057,0.75617 4.318618,0.99778 1.598049,0.24161 3.453309,0.30397 5.074672,-0.0157 1.621363,-0.31965 3.008921,-1.02122 5.480142,-1.76179 2.47122,-0.74056 6.025755,-1.52006 8.839807,-4.2562 2.814052,-2.73614 4.887536,-7.42877 6.06612,-11.73684 1.178583,-4.30807 1.462093,-8.23122 1.259466,-11.38835 -0.202628,-3.15713 -0.891474,-5.54799 -1.882906,-7.81929 -0.991432,-2.2713 -2.285412,-4.42273 -3.914602,-5.84161 -1.629189,-1.41888 -3.593585,-2.10486 -6.041369,-2.81426 -2.447784,-0.7094 -5.378791,-1.44215 -8.309892,-1.83975 -2.931101,-0.3976 -5.862102,-0.45996 -8.582746,-0.18714 -2.720645,0.27282 -5.230687,0.88084 -7.514816,2.07354 z"
       id="path41057-5" /><path
       style="display:inline;fill:#696969;fill-opacity:0.439216;stroke-width:1.056;stroke-linecap:round;stroke-linejoin:round;stroke-miterlimit:10;paint-order:markers stroke fill"
       id="path5708"
       d="m 93.364994,368.92065 a 25.739849,24.862942 0 0 1 -21.900812,24.58485 25.739849,24.862942 0 0 1 -28.43372,-17.2513 25.739849,24.862942 0 0 1 13.41917,-29.73083 25.739849,24.862942 0 0 1 32.436594,8.38274"
       transform="translate(0.04761964,79.808195)" /><path
       style="display:inline;fill:#000000;stroke-width:1.05825"
       d="m 420.87374,42.805057 c 0,0 3.36085,-0.19807 7.29522,0.477477 4.90568,0.842322 10.81032,2.835408 13.44753,5.858869 6.36237,7.294232 7.17032,22.665021 2.4073,32.385943 -1.98559,4.052415 -4.05136,6.661046 -7.10361,8.931159 -2.62763,1.954299 -5.92908,2.921801 -9.12297,3.644844 -2.24003,0.507106 -6.87552,0.448681 -6.87552,0.448681 v -3.859748 c 0,0 10.07019,-0.02688 13.69098,-2.976689 5.39817,-4.397812 7.9744,-12.148238 8.47208,-19.093255 0.40036,-5.58692 -0.67106,-12.139072 -4.55564,-16.174417 -2.17851,-2.263057 -6.45332,-4.073301 -10.37427,-4.938857 -3.79917,-0.838672 -7.2811,-0.767558 -7.2811,-0.767558 z m -0.0121,1.4e-5 c 0,0 -3.36129,-0.19033 -7.2941,0.494276 -4.90373,0.853616 -10.80376,2.860295 -13.434,5.889821 -6.34556,7.308864 -7.11811,22.681473 -2.33271,32.391401 1.99491,4.047831 4.06668,6.651698 7.12415,8.914776 2.63213,1.948243 5.9358,2.90814 9.13134,3.623826 2.2412,0.501946 6.87654,0.432846 6.87654,0.432846 l -0.009,-3.859738 c 0,0 -10.07022,-0.0037 -13.6978,-2.945152 -5.40828,-4.385369 -8.00235,-12.129842 -8.51603,-19.073695 -0.41322,-5.585983 0.64311,-12.140585 4.51839,-16.184865 2.17329,-2.268068 6.44392,-4.088151 10.36286,-4.962734 3.79723,-0.847419 7.27932,-0.784323 7.27932,-0.784323 z"
       id="path40891"
       transform="matrix(-1,0,0,1,488.68147,380.1396)"
       class="UnoptimicedTransforms" /></g></svg>
