<?xml version="1.0" encoding="UTF-8" standalone="no"?>
<!-- Created with Inkscape (http://www.inkscape.org/) -->

<svg
   width="512.00006"
   height="512"
   viewBox="0 0 135.46667 135.46665"
   version="1.1"
   id="svg5"
   inkscape:export-filename="Female_BetaBear_south.png"
   inkscape:export-xdpi="96"
   inkscape:export-ydpi="96"
   inkscape:version="1.2.1 (9c6d41e410, 2022-07-14)"
   sodipodi:docname="Beta_Bear_Head_Male.svg"
   xml:space="preserve"
   xmlns:inkscape="http://www.inkscape.org/namespaces/inkscape"
   xmlns:sodipodi="http://sodipodi.sourceforge.net/DTD/sodipodi-0.dtd"
   xmlns:xlink="http://www.w3.org/1999/xlink"
   xmlns="http://www.w3.org/2000/svg"
   xmlns:svg="http://www.w3.org/2000/svg"><sodipodi:namedview
     id="namedview7"
     pagecolor="#ffffff"
     bordercolor="#666666"
     borderopacity="1.0"
     inkscape:pageshadow="2"
     inkscape:pageopacity="0.0"
     inkscape:pagecheckerboard="0"
     inkscape:document-units="px"
     showgrid="false"
     units="px"
     inkscape:object-paths="true"
     showguides="true"
     width="512px"
     inkscape:zoom="0.6411608"
     inkscape:cx="-400.05565"
     inkscape:cy="761.89935"
     inkscape:window-width="2975"
     inkscape:window-height="1546"
     inkscape:window-x="486"
     inkscape:window-y="325"
     inkscape:window-maximized="0"
     inkscape:current-layer="g3136"
     inkscape:showpageshadow="2"
     inkscape:deskcolor="#d1d1d1"><inkscape:grid
       type="xygrid"
       id="grid85961"
       originx="0"
       originy="0" /><sodipodi:guide
       position="0.0096040073,284.65519"
       orientation="0,512"
       id="guide38033"
       inkscape:locked="false" /><sodipodi:guide
       position="67.779403,-111.53187"
       orientation="-1,0"
       id="guide38035"
       inkscape:locked="false"
       inkscape:label=""
       inkscape:color="rgb(0,134,229)" /><sodipodi:guide
       position="135.47625,149.18854"
       orientation="0,-512"
       id="guide38037"
       inkscape:locked="false" /><sodipodi:guide
       position="0.0096040073,149.18854"
       orientation="-512,0"
       id="guide38039"
       inkscape:locked="false" /><sodipodi:guide
       position="420.95907,268.8462"
       orientation="1,0"
       id="guide40893"
       inkscape:locked="false" /><sodipodi:guide
       position="0.0096040073,284.65519"
       orientation="0,511.99997"
       id="guide40984"
       inkscape:locked="false" /><sodipodi:guide
       position="135.47625,284.65519"
       orientation="511.99997,0"
       id="guide40986"
       inkscape:locked="false" /><sodipodi:guide
       position="135.47625,149.18855"
       orientation="0,-511.99997"
       id="guide40988"
       inkscape:locked="false" /><sodipodi:guide
       position="0.0096040073,149.18855"
       orientation="-511.99997,0"
       id="guide40990"
       inkscape:locked="false" /><sodipodi:guide
       position="0.0096040073,284.65519"
       orientation="0,511.99997"
       id="guide2716"
       inkscape:locked="false" /><sodipodi:guide
       position="135.47625,284.65519"
       orientation="511.99997,0"
       id="guide2718"
       inkscape:locked="false" /><sodipodi:guide
       position="135.47625,149.18855"
       orientation="0,-511.99997"
       id="guide2720"
       inkscape:locked="false" /><sodipodi:guide
       position="0.0096040073,149.18855"
       orientation="-511.99997,0"
       id="guide2722"
       inkscape:locked="false" /><sodipodi:guide
       position="-772.04448,330.69268"
       orientation="1,0"
       id="guide2724"
       inkscape:locked="false" /></sodipodi:namedview><defs
     id="defs2"><inkscape:path-effect
       effect="bspline"
       id="path-effect2343"
       is_visible="true"
       lpeversion="1"
       weight="33.333333"
       steps="2"
       helper_size="0"
       apply_no_weight="true"
       apply_with_weight="true"
       only_selected="false" /><inkscape:path-effect
       effect="bspline"
       id="path-effect2907"
       is_visible="true"
       lpeversion="1"
       weight="33.333333"
       steps="2"
       helper_size="0"
       apply_no_weight="true"
       apply_with_weight="true"
       only_selected="false" /><linearGradient
       inkscape:collect="always"
       id="linearGradient2463"><stop
         style="stop-color:#ffffff;stop-opacity:1;"
         offset="0"
         id="stop2459" /><stop
         style="stop-color:#686868;stop-opacity:0.62352941;"
         offset="0.36518049"
         id="stop2467" /><stop
         style="stop-color:#000000;stop-opacity:0.36990592;"
         offset="1"
         id="stop2461" /></linearGradient><inkscape:path-effect
       effect="bspline"
       id="path-effect39915"
       is_visible="true"
       lpeversion="1"
       weight="33.333333"
       steps="2"
       helper_size="0"
       apply_no_weight="true"
       apply_with_weight="true"
       only_selected="false" /><linearGradient
       inkscape:collect="always"
       id="linearGradient36778"><stop
         style="stop-color:#ffffff;stop-opacity:0.27586207;"
         offset="0"
         id="stop36774" /><stop
         style="stop-color:#b2b2b2;stop-opacity:0.68627451;"
         offset="0.58656073"
         id="stop36785" /><stop
         style="stop-color:#787878;stop-opacity:1;"
         offset="1"
         id="stop36776" /></linearGradient><inkscape:path-effect
       effect="bspline"
       id="path-effect34112"
       is_visible="true"
       lpeversion="1"
       weight="33.333333"
       steps="2"
       helper_size="0"
       apply_no_weight="true"
       apply_with_weight="true"
       only_selected="false" /><linearGradient
       id="linearGradient17330"
       inkscape:swatch="solid"><stop
         style="stop-color:#000000;stop-opacity:1;"
         offset="0"
         id="stop17328" /></linearGradient><radialGradient
       inkscape:collect="always"
       xlink:href="#linearGradient36778"
       id="radialGradient36782"
       cx="67.946877"
       cy="53.260635"
       fx="67.946877"
       fy="53.260635"
       r="26.650776"
       gradientTransform="matrix(0.19979214,1.3744813,-1.5007549,0.21814704,146.29155,-39.031724)"
       gradientUnits="userSpaceOnUse" /><radialGradient
       inkscape:collect="always"
       xlink:href="#linearGradient2463"
       id="radialGradient2465"
       cx="81.758156"
       cy="57.895428"
       fx="81.758156"
       fy="57.895428"
       r="24.690413"
       gradientTransform="matrix(2.7275198,1.1829971,-1.4967792,3.4509764,-52.143795,-234.77103)"
       gradientUnits="userSpaceOnUse" /><inkscape:path-effect
       effect="bspline"
       id="path-effect2907-1"
       is_visible="true"
       lpeversion="1"
       weight="33.333333"
       steps="2"
       helper_size="0"
       apply_no_weight="true"
       apply_with_weight="true"
       only_selected="false" /></defs><g
     id="g3131"
     transform="translate(-0.52896021,-209.97288)"
     style="display:inline"><path
       style="fill:#ffffff;fill-opacity:1;stroke-width:1.056;stroke-linecap:round;stroke-linejoin:round;stroke-miterlimit:10;paint-order:markers stroke fill"
       d="m 78.550335,198.23827 c -1.758844,-1.12937 -4.190486,-2.58835 -6.768062,-3.43951 -2.577577,-0.85116 -5.300959,-1.09432 -7.84073,-1.08262 -2.539772,0.0117 -4.895734,0.2783 -7.578349,1.3659 -2.682616,1.0876 -5.691556,2.99613 -7.866703,4.99934 -2.175147,2.00321 -3.516274,4.10087 -4.539339,7.0584 -1.023065,2.95752 -1.728018,6.77458 -1.710755,10.08456 0.01726,3.30998 0.756603,6.1126 2.132241,8.76913 1.375637,2.65653 3.387331,5.16685 5.244366,7.0066 1.857035,1.83976 3.559238,3.00895 5.459234,3.97179 1.899997,0.96284 3.997657,1.71937 6.155558,2.34695 2.157902,0.62757 4.375919,1.1262 6.576791,1.39268 2.200872,0.26647 4.384501,0.30086 6.507974,0.0429 2.123473,-0.25795 4.186746,-0.80815 5.880413,-1.19502 1.693667,-0.38687 3.017599,-0.61039 4.341609,-0.66194 1.32401,-0.0515 2.647945,0.0688 3.739628,-0.49001 1.091683,-0.55881 1.951378,-1.79677 2.768107,-3.4388 0.816729,-1.64203 1.590457,-3.68811 2.114894,-5.45051 0.524437,-1.7624 0.79954,-3.24108 0.610556,-4.26412 -0.188983,-1.02305 -0.842352,-1.59045 -1.959982,-2.08917 -1.117629,-0.49872 -2.699473,-0.92857 -3.713983,-1.4357 -1.014511,-0.50713 -1.461556,-1.09173 -1.659408,-1.95148 -0.197851,-0.85974 -0.146269,-1.99454 0.128823,-3.18961 0.275091,-1.19508 0.773716,-2.45024 0.937106,-3.78273 0.16339,-1.33249 -0.0086,-2.7424 -0.902591,-4.72836 -0.894041,-1.98596 -2.510268,-4.54785 -3.861391,-6.22874 -1.351123,-1.68088 -2.437163,-2.48058 -4.196007,-3.60995 z"
       id="path2341"
       inkscape:path-effect="#path-effect2343"
       inkscape:original-d="m 79.22282,198.5677 c -2.431375,-1.45872 -4.863014,-2.91771 -7.294919,-4.37695 -2.723226,-0.24291 -5.446608,-0.48607 -8.170308,-0.7295 -2.355789,0.26688 -4.71175,0.53349 -7.068023,0.79983 -3.008796,1.90887 -6.017735,3.8174 -9.027,5.7257 -1.340919,2.09801 -2.682046,4.19567 -4.023465,6.29311 -0.704715,3.81747 -1.409666,7.63453 -2.114897,11.45139 0.739635,2.80299 1.478973,5.60561 2.218063,8.40801 2.012037,2.51068 4.02373,5.021 6.035195,7.5311 1.702533,1.1695 3.404735,2.33869 5.106704,3.50763 2.098011,0.75683 4.195672,1.51336 6.293111,2.26965 2.218373,0.49891 4.43639,0.99753 6.654188,1.4959 2.183985,0.0347 4.367614,0.0691 6.551025,0.10317 2.063622,-0.54997 4.126896,-1.10017 6.189944,-1.65065 1.324253,-0.22327 2.648186,-0.44679 3.971883,-0.67058 1.32425,0.12063 2.648185,0.24099 3.971879,0.36108 0.859996,-1.23775 1.719694,-2.47571 2.579145,-3.71397 0.774022,-2.04589 1.547749,-4.09197 2.321229,-6.13836 0.275378,-1.47847 0.550481,-2.95715 0.825325,-4.43612 -0.653132,-0.56716 -1.306502,-1.13456 -1.960149,-1.70224 -1.581642,-0.4296 -3.163485,-0.85945 -4.745625,-1.28957 -0.446796,-0.58435 -0.893839,-1.16895 -1.341154,-1.75382 0.05185,-1.13458 0.103431,-2.26938 0.15475,-3.40447 0.498908,-1.25494 0.997532,-2.5101 1.495903,-3.76555 -0.171682,-1.40969 -0.343622,-2.8196 -0.515829,-4.22979 -1.616032,-2.56174 -3.232263,-5.12363 -4.84879,-7.68585 -1.085818,-0.79947 -2.171859,-1.59917 -3.258185,-2.39915 z"
       transform="translate(0.53856422,60.784343)" /><g
       inkscape:label="Clip"
       id="g37690"
       style="display:inline"
       transform="translate(-1.4178273,210.12478)"><g
         id="g37672"
         style="display:inline"><path
           style="display:inline;fill:url(#radialGradient36782);fill-opacity:1;stroke-width:1.05798"
           d="m 64.507948,90.238772 c -6.47633,-1.808811 -13.163727,-5.105975 -16.731113,-9.33675 -4.747544,-5.630395 -5.125045,-8.654823 -4.550286,-16.68784 0.977622,-13.663546 6.41968,-18.547697 20.313961,-19.552719 15.511206,-1.121979 23.003716,4.525622 26.953343,16.591092 0.196822,0.601261 -3.001401,6.794464 -1.869982,9.903108 0.645162,1.772622 4.557994,2.548106 5.978194,3.309812 2.040097,1.094179 1.576732,3.050949 1.561956,3.70224 -0.06166,2.717747 -1.738563,6.36413 -3.514486,8.242824 -0.517525,0.547474 -1.265606,2.697718 -3.020699,3.127169 -2.020713,0.494445 -5.141184,-0.737946 -6.897793,-0.169227 -1.961097,0.634924 -3.791123,1.792272 -5.837352,2.04122 -4.116635,0.500837 -9.17739,-0.27485 -12.385743,-1.170929 z m 24.89037,-0.609114 c 0.967768,-0.967768 5.442057,-6.871095 6.240246,-9.05543 0.684292,-1.872643 1.188747,-3.970567 -0.178611,-5.481484 -0.10464,-0.115626 -1.626786,-1.33654 -3.678738,-2.176928 -0.917232,-0.375658 -2.808633,-0.893822 -3.204454,-1.933836 -0.819672,-2.15367 0.658907,-4.662492 0.759148,-7.546864 0.138445,-3.9837 -0.932329,-6.655315 -1.159483,-7.155393 -2.631871,-5.794048 -11.979236,-10.126397 -11.979236,-6.53208 0,0.58189 -0.858229,1.057982 -1.907175,1.057982 -0.922817,0 -3.656249,-0.0071 -5.53131,1.267095 -0.04011,0.02726 2.170044,2.994558 2.128637,3.020253 -0.626358,0.388687 -3.338195,-1.8051 -3.757725,-1.235414 -0.408919,0.555277 2.100498,2.794334 1.628162,3.319029 -0.29119,0.323468 -3.733615,-1.56759 -4.051738,-1.273018 -2.121253,1.964215 -1.528204,5.563791 -2.096894,7.46191 -0.318596,1.063379 0.640928,2.508743 0.325157,3.593962 -0.09636,0.331164 -0.967118,-0.590498 -1.636255,-0.660124 -0.633533,-0.06592 -1.066951,0.719143 -1.163643,1.028755 -0.145964,0.467382 0.471271,0.435239 0.990851,0.833517 0.486556,0.372963 0.875963,1.175182 0.802025,1.63706 -0.05091,0.318046 -1.312155,-0.150143 -1.966327,-0.160587 -0.705245,-0.01126 -0.807371,0.433607 -0.874382,0.78575 -0.764646,4.018213 0.814551,9.575017 3.006685,11.957565 0.272921,0.296627 0.6301,-0.05504 1.516391,-0.131019 0.577888,-0.04954 1.622711,0.09879 2.182506,0.34271 0.311065,0.135538 -2.12658,1.099248 -1.796009,1.250269 0.122843,0.05612 0.789616,-0.283312 1.344314,-0.278201 0.719042,0.0066 1.361133,0.353544 1.537931,0.423066 0.07334,0.02884 -1.948544,0.8 -1.625938,1.638403 0.712517,1.851722 4.336512,4.666314 6.940229,5.02549 3.702958,0.510814 7.556744,-0.80262 11.350016,-0.979871 1.949798,-0.09111 5.525351,0.287702 5.85562,-0.04257 z"
           id="grey"
           sodipodi:nodetypes="sssssssssssasssssssssssssssssssssssssssssssass" /><path
           style="display:inline;fill:#000000;fill-opacity:1;stroke:none;stroke-width:0.723431;stroke-linecap:round;stroke-linejoin:round;stroke-miterlimit:10;paint-order:markers stroke fill"
           d="m 93.221824,76.033637 c -0.455896,0.409404 -0.89053,0.955198 -1.3255,1.51849 -0.43497,0.563293 -0.870169,1.143936 -0.954009,1.855369 -0.08384,0.711433 0.18366,1.553065 0.568996,1.83637 0.385336,0.283305 0.88857,0.0087 1.419519,0.248562 0.53095,0.23986 1.089132,0.993518 1.291453,1.073951 0.202321,0.08043 0.04865,-0.512638 0.311925,-1.068601 0.263277,-0.555963 0.943625,-1.074618 1.199081,-1.728774 0.255456,-0.654156 0.08585,-1.444105 -0.16854,-2.248441 -0.254384,-0.804335 -0.593604,-1.623007 -1.001802,-1.896113 -0.408198,-0.273107 -0.885227,-2.17e-4 -1.341123,0.409187 z"
           id="path34110"
           inkscape:path-effect="#path-effect34112"
           inkscape:original-d="m 93.200634,75.897156 c -0.434369,0.546153 -0.869005,1.091946 -1.303903,1.637383 -0.435081,0.581103 -0.87028,1.161746 -1.305894,1.742326 0.267802,0.842012 0.535302,1.683644 0.802516,2.524942 0.503466,-0.274321 1.0067,-0.548924 1.509755,-0.823838 0.558716,0.754286 1.116898,1.507944 1.675127,2.261757 -0.153448,-0.592961 -0.30712,-1.186033 -0.461039,-1.779301 0.680514,-0.518315 1.360862,-1.03697 2.041081,-1.555994 -0.169352,-0.789622 -0.338963,-1.579571 -0.508842,-2.369892 -0.338971,-0.818352 -0.67819,-1.637024 -1.017683,-2.456072 -0.476784,0.273259 -0.953812,0.54615 -1.431118,0.818689 z"
           sodipodi:nodetypes="ccccccccccc" /><path
           style="display:inline;fill:url(#radialGradient2465);fill-opacity:1;fill-rule:evenodd;stroke:none;stroke-width:1.056;stroke-linecap:round;stroke-linejoin:round;stroke-miterlimit:10;stroke-dasharray:none;stroke-opacity:1;paint-order:markers stroke fill"
           d="m 88.479337,69.550281 c -0.701416,1.51229 -1.314271,1.297462 -1.718515,2.253809 -0.404243,0.956347 -0.599488,3.083667 -1.316543,3.286377 -0.717056,0.202711 -1.956129,-1.519262 -2.853475,-2.362956 -0.897347,-0.843695 -1.452915,-0.808731 -2.068431,-0.644652 -0.615516,0.164079 -1.290781,0.457291 -1.917298,0.814003 -0.626517,0.356712 -1.204646,0.777233 -1.523816,1.212366 -0.319169,0.435132 -0.380394,0.886103 -0.262152,0.993349 0.118242,0.107247 0.416057,-0.128788 0.528545,-0.08777 0.112488,0.04101 0.04014,0.358729 0.121901,0.398394 0.08176,0.03966 0.317093,-0.198223 0.463101,-0.190445 0.146008,0.0078 0.201747,0.260034 0.774301,0.69895 0.572555,0.438915 1.652134,1.05714 2.441735,1.082729 0.7896,0.02559 1.284968,-0.543869 1.902185,-0.676824 0.617217,-0.132956 1.355871,0.170497 0.712292,0.806342 -0.643578,0.635844 -2.669146,1.604207 -3.763538,2.299915 -1.094391,0.695707 -1.257457,1.118681 -1.104557,1.331566 0.152901,0.212885 0.621423,0.216084 1.177324,0.41535 0.5559,0.199266 1.197717,0.593707 1.138332,0.761391 -0.05939,0.167685 -0.819884,0.108029 -1.620638,0.28391 -0.800754,0.17588 -1.640577,0.58742 -1.650566,0.756159 -0.01,0.16874 0.809618,0.0948 1.601767,0.255517 0.792149,0.160713 1.555807,0.555549 1.500579,0.832062 -0.05523,0.276512 -0.929405,0.434454 -1.546192,0.631501 -0.616788,0.197047 -0.975759,0.433145 -0.841689,1.191298 0.13407,0.758152 0.760807,2.037351 2.032079,2.667552 1.271271,0.630201 3.185107,0.61062 5.049938,0.573771 1.864831,-0.03685 3.680388,-0.09096 4.853008,-0.854509 1.172619,-0.763551 1.701339,-2.235683 1.653975,-2.122309 -0.04736,0.113375 -0.670968,1.812697 -1.988781,2.642649 -1.317812,0.829952 -3.330002,0.790578 -4.982917,0.937999 -1.652915,0.147421 -2.946271,0.481671 -4.99594,0.852165 -2.049669,0.370494 -4.855498,0.777179 -7.49009,0.746706 -2.634592,-0.03047 -5.097878,-0.498187 -7.779507,-1.090631 -2.681628,-0.592445 -5.581445,-1.309604 -8.029211,-2.35413 -2.447766,-1.044526 -4.443341,-2.416484 -6.127192,-4.006711 -1.68385,-1.590227 -3.055807,-3.398715 -4.334302,-5.690566 -1.278494,-2.291851 -2.463365,-5.066943 -2.977932,-8.013655 -0.514567,-2.946712 -0.358662,-6.064795 0.280548,-9.229792 0.639211,-3.164997 1.76172,-6.376622 3.804188,-9.011569 2.042467,-2.634947 5.004645,-4.692882 8.356784,-5.830995 3.35214,-1.138114 7.09384,-1.356379 10.648576,-1.309583 3.554737,0.0468 6.922266,0.358604 9.46358,1.075875 2.541314,0.717272 4.256258,1.839782 6.158331,3.367719 1.902072,1.527937 3.991187,3.461147 5.441051,5.581539 1.449864,2.120393 2.260565,4.427773 2.270704,7.201137 0.01014,2.773363 -0.780126,6.012712 -1.481542,7.525002 z"
           id="path39913"
           inkscape:path-effect="#path-effect39915"
           inkscape:original-d="m 88.390499,71.277301 c -0.612631,-0.214578 -1.225487,-0.429405 -1.838646,-0.644511 -0.194988,2.127673 -0.390232,4.254993 -0.585746,6.382099 -1.238835,-1.721746 -2.477908,-3.443719 -3.717294,-5.166024 -0.555338,0.03523 -1.110907,0.07019 -1.666775,0.104897 -0.675042,0.293495 -1.350307,0.586707 -2.025876,0.879672 -0.577387,0.420438 -1.155516,0.84096 -1.732921,1.260498 -0.06086,0.450468 -0.122081,0.901439 -0.183521,1.35178 0.29786,-0.235597 0.595675,-0.471632 0.892761,-0.707564 -0.07203,0.317739 -0.144384,0.635453 -0.217063,0.953177 0.236166,-0.238201 0.471495,-0.476088 0.707118,-0.714806 0.05632,0.253967 0.112062,0.506223 0.168045,0.760518 1.08888,0.623664 2.168459,1.241889 3.252327,1.862457 0.495664,-0.56923 0.991032,-1.138688 1.486166,-1.708446 0.738963,0.303736 1.477617,0.607189 2.216052,0.910396 -2.025385,0.968667 -4.050953,1.93703 -6.076819,2.905144 -0.16275,0.423105 -0.325816,0.846079 -0.489045,1.268525 0.468709,0.0035 0.937232,0.0066 1.405767,0.0096 0.643222,0.395406 1.285039,0.789847 1.928003,1.184891 -0.761709,-0.05951 -1.522207,-0.119163 -2.283925,-0.179158 -0.839615,0.411832 -1.679438,0.823372 -2.519155,1.234466 0.819609,-0.07365 1.639216,-0.147583 2.458812,-0.221806 0.764624,0.395464 1.528282,0.7903 2.292363,1.185227 -0.874431,0.1583 -1.748607,0.316241 -2.623314,0.473966 -0.358722,0.236373 -0.717693,0.472471 -1.076956,0.708323 0.627311,1.280094 1.254048,2.559293 1.881069,3.839346 1.915416,-0.01933 3.829252,-0.03891 5.743049,-0.05876 1.81587,-0.05384 3.631427,-0.107954 5.447636,-0.162354 0.529341,-1.47286 1.058061,-2.944992 1.586709,-4.417926 -0.623376,1.699686 -1.24698,3.399008 -1.870886,5.098165 -2.012043,-0.03911 -4.024233,-0.07849 -6.036807,-0.118125 -1.29317,0.334535 -2.586526,0.668785 -3.880225,1.002791 -2.805677,0.406967 -5.611506,0.813652 -8.417655,1.220081 -2.463117,-0.467466 -4.926403,-0.935178 -7.390002,-1.403165 -2.899666,-0.716922 -5.799483,-1.434081 -8.69962,-2.151519 -1.995387,-1.371746 -3.990962,-2.743703 -5.986838,-4.115951 -1.371745,-1.808294 -2.743702,-3.616782 -4.11595,-5.425569 -1.184653,-2.774939 -2.369524,-5.550031 -3.554685,-8.325444 0.156176,-3.117942 0.312079,-6.236025 0.467723,-9.354433 1.12282,-3.211488 2.245328,-6.423114 3.367595,-9.635065 2.96256,-2.057752 5.924739,-4.115686 8.88671,-6.173927 3.742113,-0.218009 7.483813,-0.436274 11.225319,-0.654809 3.367929,0.312086 6.735458,0.623892 10.102788,0.935442 1.715278,1.12282 3.430222,2.24533 5.144936,3.367598 2.089465,1.933551 4.178578,3.866763 6.267471,5.799748 0.810998,2.307735 1.6217,4.615115 2.432153,6.922279 -0.790019,3.239693 -1.580283,6.479042 -2.370848,9.718276 z"
           sodipodi:nodetypes="ccccccccccccccccccccccccccccccccccccccccccccccc" /><path
           style="display:inline;fill:#7a4747;fill-opacity:1;fill-rule:nonzero;stroke:none;stroke-width:1.056;stroke-linecap:round;stroke-linejoin:round;stroke-miterlimit:10;stroke-opacity:1;paint-order:markers stroke fill"
           d="m 51.784093,269.48634 c -0.06603,-0.0989 -0.19822,-0.29686 -0.437937,-0.57227 -0.239717,-0.27542 -0.722348,-0.76576 -0.695363,-0.92736 0.02699,-0.1616 0.577114,-0.29306 0.967599,-0.18528 0.390485,0.10778 0.669312,0.39191 0.970162,0.54754 0.300851,0.15562 0.673512,0.14946 0.494522,-0.0881 -0.178991,-0.23755 -0.812085,-0.78443 -0.884854,-1.14115 -0.07277,-0.35673 0.378448,-0.64766 0.75176,-0.5793 0.373312,0.0684 0.789725,0.55984 0.96129,0.61968 0.171566,0.0599 0.262851,-0.25008 0.230228,-0.67701 -0.03262,-0.42692 -0.19341,-1.10172 -0.08287,-1.27794 0.110539,-0.17622 0.560507,0.0456 0.870322,0.13659 0.309814,0.091 0.546555,0.0812 0.636085,-0.0938 0.08953,-0.17498 0.03325,-0.52211 -0.129878,-0.92333 -0.163124,-0.40123 -0.437629,-0.88458 -0.300965,-1.02519 0.136664,-0.1406 0.684499,0.0615 1.112093,0.3111 0.427594,0.24957 0.779806,0.58991 0.952398,0.86271 0.172593,0.2728 0.293068,0.75993 0.530907,0.61371 0.237838,-0.14623 0.68104,-0.57 0.99859,-0.52475 0.317549,0.0452 0.51114,0.56405 0.647601,1.00529 0.136461,0.44125 0.285726,1.12793 0.1593,1.2073 -0.126427,0.0794 -0.549025,-0.007 -0.854133,-0.10014 -0.305109,-0.0927 -0.547539,-0.19948 -0.864302,-0.2258 -0.316762,-0.0263 -0.677209,0.045 -0.47823,0.29834 0.19898,0.25333 0.654569,0.55995 0.62483,0.68136 -0.02974,0.12142 -0.773855,0.1358 -1.025403,0.30285 -0.251548,0.16704 -0.187297,0.45403 -0.229148,0.61401 -0.04185,0.15998 -0.180341,0.19155 -0.396603,0.13209 -0.216261,-0.0595 -0.503078,-0.19768 -0.573611,0.0691 -0.07053,0.26674 -0.04524,0.51823 -0.191356,0.95675 -0.146114,0.43852 -0.383841,0.62191 -0.672147,0.49512 -0.288306,-0.12679 -0.631927,-0.66486 -0.744898,-0.51964 -0.11297,0.14522 -0.04612,0.8968 -0.18051,1.15658 -0.134388,0.25977 -0.491522,0.0128 -0.692575,-0.0289 -0.201052,-0.0417 -0.311856,0.12446 -0.366944,0.28851 -0.05509,0.16405 -0.09765,0.51485 -0.233798,0.67062 -0.136144,0.15577 -0.513405,0.35131 -0.789799,0.41465 -0.276395,0.0633 -0.887473,-0.0742 -0.733699,-0.18429 0.153775,-0.11009 0.5318,-0.37983 0.362168,-0.59275 -0.169632,-0.21292 -0.753093,-0.45555 -0.764377,-0.7327 -0.01129,-0.27716 0.551958,-0.5801 0.835766,-0.73274 0.283807,-0.15265 0.283807,-0.15264 0.21778,-0.25153 z"
           id="path2905-8"
           sodipodi:nodetypes="ccccccccccccccccccccccccccccccccccccccccc"
           inkscape:original-d="m 51.85012,269.58523 c -0.131995,-0.19781 -0.264184,-0.39579 -0.39657,-0.59392 -0.34711,-0.35266 -0.829737,-0.84301 -1.076995,-1.09421 0.301292,-0.0717 0.851424,-0.20315 1.312605,-0.31368 0.319722,0.32579 0.598546,0.60992 0.908715,0.92599 0.291527,-0.005 0.664196,-0.0107 0.852598,-0.0141 -0.546406,-0.47196 -1.1795,-1.01884 -1.714605,-1.48111 0.389784,-0.25089 0.840999,-0.54183 1.248731,-0.80516 0.338718,0.39973 0.755129,0.89121 1.035885,1.22262 0.06267,-0.21161 0.153954,-0.52154 0.230038,-0.78102 -0.141455,-0.59451 -0.302241,-1.26931 -0.426998,-1.79205 0.345591,0.17046 0.79556,0.39223 1.184437,0.58376 0.230828,-0.009 0.467557,-0.0191 0.701772,-0.0291 0.0072,-0.35035 0.0991,-0.72151 -0.16319,-1.00646 -0.274449,-0.48339 -0.548955,-0.96674 -0.823521,-1.45006 0.547782,0.20228 1.095619,0.40441 1.643506,0.60641 0.290062,0.31489 0.79342,0.49882 0.935838,0.90431 0.09804,0.27143 0.08604,0.79132 0.221863,0.89708 0.443447,-0.42351 0.886648,-0.84728 1.329608,-1.27131 -0.02253,0.59427 0.232556,1.09013 0.579741,1.55366 0.249512,0.32476 0.475132,0.99485 0.275866,1.26911 -0.300829,-0.0616 -0.723428,-0.14842 -1.078513,-0.22158 -0.255144,-0.11227 -0.497576,-0.21908 -0.776338,-0.34205 -0.35465,0.0705 -0.715095,0.14185 -0.989357,0.19582 0.67212,0.45244 1.127711,0.75906 1.476814,0.99393 -0.408541,0.008 -1.152652,0.0226 -1.728063,0.0334 0.295119,0.27309 0.491768,0.53043 0.200652,0.89623 -0.0783,0.33856 -0.210909,0.39593 -0.412379,0.094 -0.277069,-0.20859 -0.407885,-0.67053 -0.797881,-0.38449 0.06381,0.63208 0.0891,0.88357 0.149675,1.48829 -0.352814,0.27264 -0.590539,0.45603 -0.86858,0.67004 -0.298734,-0.46793 -0.642355,-1.006 -0.934936,-1.464 0.06681,0.74846 0.133659,1.50004 0.200276,2.25172 -0.335669,-0.23205 -0.692801,-0.47903 -1.005958,-0.69567 -0.08861,0.13349 -0.199409,0.2996 -0.285724,0.42833 0.247249,0.2321 0.184353,0.58044 -0.0888,0.73182 -0.05085,0.51435 -0.582064,0.41286 -0.965253,0.5003 -0.244005,0.0804 -0.858691,-0.0411 -0.826884,-0.1861 0.271645,-0.27143 0.632906,-0.56466 0.938505,-0.66966 -0.591463,-0.2458 -1.174923,-0.48843 -1.768816,-0.73555 0.571548,-0.307 1.134792,-0.60994 1.702236,-0.91555 z"
           inkscape:path-effect="#path-effect2907-1"
           transform="translate(1.4178273,-210.12478)" /><path
           style="display:inline;fill:#000000;fill-opacity:1;stroke-width:1.05798"
           d="M 56.651727,89.314615 C 53.853328,88.096332 51.380323,86.139 49.175294,84.028763 47.425354,82.35405 45.906686,80.402922 44.723872,78.285296 42.592413,74.469284 41.801788,69.816602 42.032138,65.451742 c 0.23949,-4.538051 1.775168,-9.1228 4.187379,-12.974098 0.373561,-0.596421 2.847931,-3.713043 4.744542,-5.017302 1.633248,-1.12315 3.599572,-2.566988 5.62554,-3.402506 2.017279,-0.831935 5.200004,-1.504365 6.361218,-1.54553 6.782362,-0.240434 14.239144,1.00918 19.740653,4.983051 0.475304,0.343324 3.532594,2.979481 5.519561,6.305108 1.943993,3.253703 2.822103,7.191564 2.957472,8.122379 0.368235,2.532023 -3.18585,5.879461 -1.976843,8.539286 1.00656,2.214441 4.583372,1.86142 6.438567,3.434685 0.70286,0.596048 1.509001,1.288844 1.682274,2.193975 0.370159,1.933603 -1.266988,4.429408 -1.608654,5.682847 -0.892726,3.275062 -1.814386,6.728848 -5.249591,8.726322 -1.258724,0.731912 -4.322371,-0.124247 -5.746055,0.109052 -4.03701,0.661547 -8.007311,2.344786 -12.124199,2.031543 -5.48312,-0.417195 -10.957981,-1.160379 -15.932275,-3.325939 z m 33.884518,-1.731237 c 2.462558,-2.063143 3.343859,-5.605802 4.074219,-8.734272 0.218133,-0.934366 0.529999,-2.03903 0.064,-2.877759 -1.287854,-2.317945 -5.627117,-1.696215 -6.84635,-4.050978 -1.567079,-3.026574 1.47161,-6.844427 0.827017,-10.191125 C 88.1323,59.014727 86.778896,56.387207 84.962044,54.303699 82.405856,51.372345 78.875583,49.308708 75.319166,47.734278 72.703188,46.576182 69.833399,45.8044 66.97346,45.731799 c -3.574539,-0.09074 -7.458735,0.163911 -10.544561,1.970355 -4.383136,2.56589 -8.021468,6.922541 -9.77259,11.690061 -1.74901,4.761769 -1.52896,10.345525 -0.117418,15.218002 0.694767,2.398253 2.351392,4.472031 4.052695,6.299567 2.283068,2.452466 5.011847,4.601788 8.043518,6.028658 4.058823,1.910304 8.576858,3.210607 13.082749,3.670422 2.15218,0.219624 4.341725,-0.122445 6.474117,-0.454789 2.125724,-0.331305 4.275264,-1.893956 6.129253,-2.021992 2.753809,-0.190177 4.810582,0.985193 6.215022,-0.548703 z m -9.51913,-11.290714 c -0.327174,-0.529379 -1.124441,-1.205916 -0.714136,-2.275156 0.323768,-0.843728 0.358953,-0.886575 0.188013,-0.977232 -0.206825,-0.109687 0.09197,-0.725962 -1.380084,0.238573 -2.141909,1.403433 -1.086956,0.779217 -2.481395,1.25109 -0.787725,0.266564 0.777571,-1.215701 1.819653,-2.158771 2.805245,-2.538712 7.269865,-1.151274 7.269865,2.259206 0,1.892873 -0.572625,2.624798 -2.053525,2.624798 -1.129439,0 -2.321213,-0.433128 -2.648387,-0.962508 z"
           id="path34031"
           sodipodi:nodetypes="aasassassssaaassssasaaaaaaaaaaasasassssssssssss" /><path
           style="display:inline;fill:#bc8c8c;fill-opacity:1;fill-rule:nonzero;stroke:none;stroke-width:1.056;stroke-linecap:round;stroke-linejoin:round;stroke-miterlimit:10;stroke-opacity:1;paint-order:markers stroke fill"
           d="m 52.536135,270.22117 c -0.06603,-0.0989 -0.19822,-0.29686 -0.437937,-0.57227 -0.239717,-0.27542 -0.722348,-0.76576 -0.695363,-0.92736 0.02699,-0.1616 0.577114,-0.29306 0.967599,-0.18528 0.390485,0.10778 0.669312,0.39191 0.970162,0.54754 0.300851,0.15562 0.673512,0.14946 0.494522,-0.0881 -0.178991,-0.23755 -0.812085,-0.78443 -0.884854,-1.14115 -0.07277,-0.35673 0.378448,-0.64766 0.75176,-0.5793 0.373312,0.0684 0.789725,0.55984 0.96129,0.61968 0.171566,0.0598 0.262851,-0.25008 0.230228,-0.67701 -0.03262,-0.42692 -0.19341,-1.10172 -0.08287,-1.27794 0.110539,-0.17622 0.560507,0.0455 0.870322,0.13659 0.309814,0.091 0.546555,0.0812 0.636085,-0.0938 0.08953,-0.17498 0.03325,-0.52211 -0.129878,-0.92333 -0.163124,-0.40123 -0.437629,-0.88458 -0.300965,-1.02519 0.136664,-0.1406 0.684499,0.0615 1.112093,0.3111 0.427594,0.24957 0.779806,0.58991 0.952398,0.86271 0.172593,0.2728 0.293068,0.75993 0.530907,0.61371 0.237838,-0.14623 0.68104,-0.57 0.99859,-0.52475 0.317549,0.0452 0.51114,0.56405 0.647601,1.00529 0.136461,0.44125 0.285726,1.12793 0.1593,1.2073 -0.126427,0.0794 -0.549025,-0.007 -0.854133,-0.10014 -0.305109,-0.0927 -0.547539,-0.19948 -0.864302,-0.2258 -0.316762,-0.0263 -0.677209,0.045 -0.47823,0.29834 0.19898,0.25333 0.654569,0.55995 0.62483,0.68136 -0.02974,0.12142 -0.773855,0.1358 -1.025403,0.30285 -0.251548,0.16704 -0.187297,0.45403 -0.229148,0.61401 -0.04185,0.15998 -0.180341,0.19155 -0.396603,0.13209 -0.216261,-0.0595 -0.503078,-0.19768 -0.573611,0.0691 -0.07053,0.26674 -0.04524,0.51823 -0.191356,0.95675 -0.146114,0.43852 -0.383841,0.62191 -0.672147,0.49512 -0.288306,-0.12679 -0.631927,-0.66486 -0.744898,-0.51964 -0.11297,0.14522 -0.04612,0.8968 -0.18051,1.15658 -0.134388,0.25977 -0.491522,0.0128 -0.692575,-0.0288 -0.201052,-0.0417 -0.311856,0.12446 -0.366944,0.28851 -0.05509,0.16405 -0.09765,0.51485 -0.233798,0.67062 -0.136144,0.15577 -0.513405,0.35131 -0.789799,0.41465 -0.276395,0.0633 -0.887473,-0.0742 -0.733699,-0.18429 0.153775,-0.11009 0.5318,-0.37983 0.362168,-0.59275 -0.169632,-0.21292 -0.753093,-0.45555 -0.764377,-0.7327 -0.01128,-0.27716 0.551958,-0.5801 0.835766,-0.73274 0.283807,-0.15265 0.283807,-0.15264 0.21778,-0.25153 z"
           id="path2905"
           sodipodi:nodetypes="ccccccccccccccccccccccccccccccccccccccccc"
           inkscape:original-d="m 52.602162,270.32006 c -0.131995,-0.19781 -0.264184,-0.39579 -0.39657,-0.59392 -0.34711,-0.35266 -0.829737,-0.84301 -1.076995,-1.09421 0.301292,-0.0717 0.851424,-0.20315 1.312605,-0.31368 0.319722,0.32579 0.598546,0.60992 0.908715,0.92599 0.291527,-0.005 0.664196,-0.0107 0.852598,-0.0141 -0.546406,-0.47196 -1.1795,-1.01884 -1.714605,-1.48111 0.389784,-0.25089 0.840999,-0.54183 1.248731,-0.80516 0.338718,0.39973 0.755129,0.89121 1.035885,1.22262 0.06267,-0.21161 0.153954,-0.52154 0.230038,-0.78102 -0.141455,-0.59451 -0.302241,-1.26931 -0.426998,-1.79205 0.345591,0.17046 0.79556,0.39223 1.184437,0.58376 0.230828,-0.009 0.467557,-0.0191 0.701772,-0.0291 0.0072,-0.35035 0.0991,-0.72151 -0.16319,-1.00646 -0.274449,-0.48339 -0.548955,-0.96674 -0.823521,-1.45006 0.547782,0.20228 1.095619,0.40441 1.643506,0.60641 0.290062,0.31489 0.79342,0.49882 0.935838,0.90431 0.09804,0.27143 0.08604,0.79132 0.221863,0.89708 0.443447,-0.42351 0.886648,-0.84728 1.329608,-1.27131 -0.02253,0.59427 0.232556,1.09013 0.579741,1.55366 0.249512,0.32476 0.475132,0.99485 0.275866,1.26911 -0.300829,-0.0616 -0.723428,-0.14842 -1.078513,-0.22158 -0.255144,-0.11227 -0.497576,-0.21908 -0.776338,-0.34205 -0.35465,0.0705 -0.715095,0.14185 -0.989357,0.19582 0.67212,0.45244 1.127711,0.75906 1.476814,0.99393 -0.408541,0.008 -1.152652,0.0226 -1.728063,0.0334 0.295119,0.27309 0.491768,0.53043 0.200652,0.89623 -0.0783,0.33856 -0.210909,0.39593 -0.412379,0.094 -0.277069,-0.20859 -0.407885,-0.67053 -0.797881,-0.38449 0.06381,0.63208 0.0891,0.88357 0.149675,1.48829 -0.352814,0.27264 -0.590539,0.45603 -0.86858,0.67004 -0.298734,-0.46793 -0.642355,-1.006 -0.934936,-1.464 0.06681,0.74846 0.133659,1.50004 0.200276,2.25172 -0.335669,-0.23205 -0.692801,-0.47903 -1.005958,-0.69567 -0.08861,0.13349 -0.199409,0.2996 -0.285724,0.42833 0.247249,0.2321 0.184353,0.58044 -0.0888,0.73182 -0.05085,0.51435 -0.582064,0.41286 -0.965253,0.5003 -0.244005,0.0804 -0.858691,-0.0411 -0.826884,-0.1861 0.271645,-0.27143 0.632906,-0.56466 0.938505,-0.66966 -0.591463,-0.2458 -1.174923,-0.48843 -1.768816,-0.73555 0.571548,-0.307 1.134792,-0.60994 1.702236,-0.91555 z"
           inkscape:path-effect="#path-effect2907"
           transform="translate(1.4178273,-210.12478)" /></g></g></g><path
     d="m 78.344906,72.59782 c 0.32377,-0.84372 0.917215,-0.008 0.746315,-0.099 -0.20682,-0.10968 -0.49268,-0.0244 -1.96474,0.94016 -2.1419,1.40343 -2.98122,1.52757 -3.55715,0.52612 -0.41458,-0.72089 -0.35902,-0.95261 0.12347,-0.51492 0.48249,0.43768 1.72986,0.0242 2.77194,-0.91888 2.80525,-2.53871 7.26987,-1.15128 7.26987,2.2592 0,1.89288 -0.57263,2.6248 -2.05353,2.6248 -1.12944,0 -2.542648,-0.62084 -3.286685,-1.58258 -0.283545,-0.36651 -0.251119,-0.90081 -0.269183,-1.36385 -0.02448,-0.62749 0.219693,-1.87105 0.219693,-1.87105 z"
     style="display:none;fill:#000000;fill-opacity:1;stroke-width:1.05798"
     id="path3539"
     sodipodi:nodetypes="csssssssaac" /></svg>
