<?xml version="1.0" encoding="UTF-8" standalone="no"?>
<!-- Created with Inkscape (http://www.inkscape.org/) -->

<svg
   width="512"
   height="511.99988"
   viewBox="0 0 135.46665 135.46662"
   version="1.1"
   id="svg5"
   inkscape:export-filename="Female_BetaBear_south.png"
   inkscape:export-xdpi="96"
   inkscape:export-ydpi="96"
   inkscape:version="1.2.1 (9c6d41e410, 2022-07-14)"
   sodipodi:docname="Beta_Bear_Head_Male.svg"
   xml:space="preserve"
   xmlns:inkscape="http://www.inkscape.org/namespaces/inkscape"
   xmlns:sodipodi="http://sodipodi.sourceforge.net/DTD/sodipodi-0.dtd"
   xmlns:xlink="http://www.w3.org/1999/xlink"
   xmlns="http://www.w3.org/2000/svg"
   xmlns:svg="http://www.w3.org/2000/svg"><sodipodi:namedview
     id="namedview7"
     pagecolor="#ffffff"
     bordercolor="#666666"
     borderopacity="1.0"
     inkscape:pageshadow="2"
     inkscape:pageopacity="0.0"
     inkscape:pagecheckerboard="0"
     inkscape:document-units="px"
     showgrid="false"
     units="px"
     inkscape:object-paths="true"
     showguides="true"
     width="512px"
     inkscape:zoom="0.6411608"
     inkscape:cx="-400.05565"
     inkscape:cy="761.89935"
     inkscape:window-width="2975"
     inkscape:window-height="1546"
     inkscape:window-x="486"
     inkscape:window-y="325"
     inkscape:window-maximized="0"
     inkscape:current-layer="g3136"
     inkscape:showpageshadow="2"
     inkscape:deskcolor="#d1d1d1"><inkscape:grid
       type="xygrid"
       id="grid85961"
       originx="0"
       originy="0" /><sodipodi:guide
       position="-0.0057068622,436.74327"
       orientation="0,512"
       id="guide38033"
       inkscape:locked="false" /><sodipodi:guide
       position="67.764092,40.556204"
       orientation="-1,0"
       id="guide38035"
       inkscape:locked="false"
       inkscape:label=""
       inkscape:color="rgb(0,134,229)" /><sodipodi:guide
       position="135.46093,301.27662"
       orientation="0,-512"
       id="guide38037"
       inkscape:locked="false" /><sodipodi:guide
       position="-0.0057068622,301.27662"
       orientation="-512,0"
       id="guide38039"
       inkscape:locked="false" /><sodipodi:guide
       position="420.94376,420.93428"
       orientation="1,0"
       id="guide40893"
       inkscape:locked="false" /><sodipodi:guide
       position="-0.0057068622,436.74327"
       orientation="0,511.99997"
       id="guide40984"
       inkscape:locked="false" /><sodipodi:guide
       position="135.46093,436.74327"
       orientation="511.99997,0"
       id="guide40986"
       inkscape:locked="false" /><sodipodi:guide
       position="135.46093,301.27662"
       orientation="0,-511.99997"
       id="guide40988"
       inkscape:locked="false" /><sodipodi:guide
       position="-0.0057068622,301.27662"
       orientation="-511.99997,0"
       id="guide40990"
       inkscape:locked="false" /><sodipodi:guide
       position="-0.0057068622,436.74327"
       orientation="0,511.99997"
       id="guide2716"
       inkscape:locked="false" /><sodipodi:guide
       position="135.46093,436.74327"
       orientation="511.99997,0"
       id="guide2718"
       inkscape:locked="false" /><sodipodi:guide
       position="135.46093,301.27662"
       orientation="0,-511.99997"
       id="guide2720"
       inkscape:locked="false" /><sodipodi:guide
       position="-0.0057068622,301.27662"
       orientation="-511.99997,0"
       id="guide2722"
       inkscape:locked="false" /><sodipodi:guide
       position="-772.05978,482.78076"
       orientation="1,0"
       id="guide2724"
       inkscape:locked="false" /></sodipodi:namedview><defs
     id="defs2"><linearGradient
       inkscape:collect="always"
       id="linearGradient7391"><stop
         style="stop-color:#696969;stop-opacity:1;"
         offset="0"
         id="stop7387" /><stop
         style="stop-color:#373737;stop-opacity:0.66666675;"
         offset="0.64271051"
         id="stop7395" /><stop
         style="stop-color:#696969;stop-opacity:0;"
         offset="1"
         id="stop7389" /></linearGradient><inkscape:path-effect
       effect="mirror_symmetry"
       start_point="67.733324,356.26453"
       end_point="67.733324,393.06009"
       center_point="67.733324,374.66231"
       id="path-effect7384"
       is_visible="true"
       lpeversion="1.2"
       lpesatellites=""
       mode="free"
       discard_orig_path="false"
       fuse_paths="false"
       oposite_fuse="false"
       split_items="false"
       split_open="false"
       link_styles="false" /><inkscape:path-effect
       effect="bspline"
       id="path-effect7382"
       is_visible="true"
       lpeversion="1"
       weight="33.333333"
       steps="2"
       helper_size="0"
       apply_no_weight="true"
       apply_with_weight="true"
       only_selected="false" /><inkscape:path-effect
       effect="mirror_symmetry"
       start_point="420.86408,39.673102"
       end_point="420.93588,102.02591"
       center_point="420.89998,70.849506"
       id="path-effect40992"
       is_visible="true"
       lpeversion="1.2"
       lpesatellites=""
       mode="free"
       discard_orig_path="false"
       fuse_paths="false"
       oposite_fuse="false"
       split_items="false"
       split_open="false"
       link_styles="false" /><linearGradient
       id="linearGradient17330"
       inkscape:swatch="solid"><stop
         style="stop-color:#000000;stop-opacity:1;"
         offset="0"
         id="stop17328" /></linearGradient><inkscape:path-effect
       effect="bspline"
       id="path-effect41059-0"
       is_visible="true"
       lpeversion="1"
       weight="33.333333"
       steps="2"
       helper_size="0"
       apply_no_weight="true"
       apply_with_weight="true"
       only_selected="false" /><radialGradient
       inkscape:collect="always"
       xlink:href="#linearGradient7391"
       id="radialGradient7393"
       cx="67.641045"
       cy="389.03311"
       fx="67.641045"
       fy="389.03311"
       r="22.833717"
       gradientTransform="matrix(1.849768,0.01493785,-0.01556232,1.9270978,-51.405618,-352.49036)"
       gradientUnits="userSpaceOnUse" /><radialGradient
       inkscape:collect="always"
       xlink:href="#linearGradient7391"
       id="radialGradient7393-2"
       cx="67.641045"
       cy="389.03311"
       fx="67.641045"
       fy="389.03311"
       r="22.833717"
       gradientTransform="matrix(1.849768,0.01493785,-0.01556232,1.9270978,-51.405618,-352.49036)"
       gradientUnits="userSpaceOnUse" /><inkscape:path-effect
       effect="bspline"
       id="path-effect7382-4"
       is_visible="true"
       lpeversion="1"
       weight="33.333333"
       steps="2"
       helper_size="0"
       apply_no_weight="true"
       apply_with_weight="true"
       only_selected="false" /><inkscape:path-effect
       effect="mirror_symmetry"
       start_point="67.733324,356.26453"
       end_point="67.733324,393.06009"
       center_point="67.733324,374.66231"
       id="path-effect7384-5"
       is_visible="true"
       lpeversion="1.2"
       lpesatellites=""
       mode="free"
       discard_orig_path="false"
       fuse_paths="false"
       oposite_fuse="false"
       split_items="false"
       split_open="false"
       link_styles="false" /></defs><g
     id="g3136"
     transform="translate(-0.0533265,-381.08484)"
     style="display:inline"><path
       style="display:inline;fill:url(#radialGradient7393-2);fill-opacity:1;stroke-width:1.056;stroke-linecap:round;stroke-linejoin:round;stroke-miterlimit:10;paint-order:markers stroke fill"
       d="m 44.894852,370.01997 c 0.0311,-1.29148 0.103639,-4.30377 0.553556,-6.69339 0.449918,-2.38962 1.282273,-4.36987 1.784614,-4.5581 0.502341,-0.18823 0.674838,1.41521 1.422879,2.83806 0.74804,1.42286 2.070264,2.66372 2.358598,2.27545 0.288333,-0.38827 -0.457572,-2.40509 -0.456291,-4.14375 0.0013,-1.73867 0.750353,-3.19706 1.242128,-2.92487 0.491774,0.2722 0.726482,2.27501 1.145716,3.73505 0.419234,1.46005 1.022295,2.37626 1.215116,1.95879 0.19282,-0.41747 -0.02482,-2.16782 0.272112,-3.80477 0.296926,-1.63695 1.10858,-3.15874 1.480484,-3.02547 0.371903,0.13327 0.304306,1.92152 0.528735,3.72408 0.224429,1.80257 0.740622,3.61855 0.945169,3.25754 0.204547,-0.36102 0.09751,-2.89921 0.695666,-4.78696 0.598157,-1.88775 1.901325,-3.12421 2.347098,-2.96984 0.445772,0.15437 0.03425,1.69937 -0.06188,3.19941 -0.09613,1.50004 0.122985,2.95395 0.282496,2.8352 0.159512,-0.11875 0.259259,-1.81001 0.775732,-3.28593 0.516473,-1.47593 1.44951,-2.73536 1.724309,-2.32126 0.2748,0.4141 -0.108657,2.50159 0.06128,3.87228 0.169937,1.3707 0.918431,2.04734 1.097599,1.80841 0.179168,-0.23892 -0.157765,-1.34073 -0.101216,-2.73066 0.05655,-1.38994 0.533839,-2.88836 0.752043,-2.85007 0.218205,0.0383 0.259135,1.5836 0.386948,3.08101 0.127814,1.49741 0.338646,2.80993 0.466265,2.72141 0.127619,-0.0885 0.285767,-1.77969 0.605713,-2.77577 0.319946,-0.99609 0.813673,-1.54411 1.313601,-2.09902 v 36.69344 c -1.95747,0.0243 -3.914679,0.0487 -6.279449,-0.52271 -2.364771,-0.57136 -5.136783,-1.73852 -7.896744,-3.5987 -2.75996,-1.86017 -5.507659,-4.41335 -6.954616,-7.46508 -1.446958,-3.05173 -1.592854,-6.60186 -1.738763,-10.15231 z m 45.676944,0 c -0.0311,-1.29148 -0.103639,-4.30377 -0.553556,-6.69339 -0.449918,-2.38962 -1.282273,-4.36987 -1.784614,-4.5581 -0.502341,-0.18823 -0.674838,1.41521 -1.422879,2.83806 -0.74804,1.42286 -2.070264,2.66372 -2.358598,2.27545 -0.288333,-0.38827 0.457572,-2.40509 0.456291,-4.14375 -0.0013,-1.73867 -0.750353,-3.19706 -1.242128,-2.92487 -0.491774,0.2722 -0.726482,2.27501 -1.145716,3.73505 -0.419234,1.46005 -1.022295,2.37626 -1.215116,1.95879 -0.19282,-0.41747 0.02482,-2.16782 -0.272112,-3.80477 -0.296926,-1.63695 -1.10858,-3.15874 -1.480484,-3.02547 -0.371903,0.13327 -0.304306,1.92152 -0.528735,3.72408 -0.224429,1.80257 -0.740622,3.61855 -0.945169,3.25754 -0.204547,-0.36102 -0.09751,-2.89921 -0.695666,-4.78696 -0.598157,-1.88775 -1.901325,-3.12421 -2.347098,-2.96984 -0.445772,0.15437 -0.03425,1.69937 0.06188,3.19941 0.09613,1.50004 -0.122985,2.95395 -0.282496,2.8352 -0.159512,-0.11875 -0.259259,-1.81001 -0.775732,-3.28593 -0.516473,-1.47593 -1.44951,-2.73536 -1.724309,-2.32126 -0.2748,0.4141 0.108657,2.50159 -0.06128,3.87228 -0.169937,1.3707 -0.918431,2.04734 -1.097599,1.80841 -0.179168,-0.23892 0.157765,-1.34073 0.101216,-2.73066 -0.05655,-1.38994 -0.533839,-2.88836 -0.752043,-2.85007 -0.218205,0.0383 -0.259135,1.5836 -0.386948,3.08101 -0.127814,1.49741 -0.338646,2.80993 -0.466265,2.72141 -0.127619,-0.0885 -0.285767,-1.77969 -0.605713,-2.77577 -0.319946,-0.99609 -0.813673,-1.54411 -1.313601,-2.09902 v 36.69344 c 1.95747,0.0243 3.914679,0.0487 6.279449,-0.52271 2.364771,-0.57136 5.136783,-1.73852 7.896744,-3.5987 2.75996,-1.86017 5.507659,-4.41335 6.954616,-7.46508 1.446958,-3.05173 1.592854,-6.60186 1.738763,-10.15231 z"
       id="path7380-5"
       inkscape:path-effect="#path-effect7382-4;#path-effect7384-5"
       inkscape:original-d="m 44.863752,371.31139 c 0.06247,-2.58289 0.135009,-5.59518 0.202137,-8.39399 0.832756,-1.98031 1.665112,-3.96056 2.496982,-5.94055 0.172726,1.60337 0.345222,3.20681 0.517503,4.81043 1.323559,1.24213 2.645784,2.48299 3.968875,3.72465 -0.74627,-2.01826 -1.492175,-4.03508 -2.238938,-6.05377 0.749496,-1.45843 1.498567,-2.91682 2.247137,-4.37501 0.234892,2.00239 0.469599,4.0052 0.704079,6.00805 0.603819,0.91723 1.206881,1.83344 1.810269,2.75028 -0.21758,-1.75177 -0.435214,-3.50212 -0.653286,-5.25412 0.812012,-1.5217 1.623665,-3.04349 2.434739,-4.56495 -0.06731,1.78784 -0.134905,3.57609 -0.202776,5.36431 0.516629,1.81685 1.032823,3.63283 1.548762,5.44858 -0.106767,-2.53774 -0.213806,-5.07593 -0.321125,-7.61476 1.303638,-1.23639 2.606804,-2.47285 3.909647,-3.70951 -0.41124,1.54521 -0.822759,3.09021 -1.234615,4.63522 0.2195,1.45496 0.438616,2.90887 0.657622,4.36353 0.100077,-1.69211 0.199824,-3.38337 0.299352,-5.07567 0.933434,-1.25935 1.866471,-2.51878 2.799273,-3.77851 -0.383196,2.08777 -0.766652,4.17526 -1.150411,6.26269 0.723317,0.65391 1.471814,1.33055 2.169022,1.96081 -0.338695,-1.10817 -0.675627,-2.20998 -1.054106,-3.44705 0.491726,-1.54265 0.969015,-3.04107 1.369732,-4.30019 0.03563,1.3356 0.07656,2.8809 0.120818,4.56145 0.211332,1.31425 0.422164,2.62677 0.572804,3.56596 0.104667,-1.11617 0.262816,-2.80734 0.396291,-4.23775 0.506408,-0.56154 1.499785,-1.66472 1.499785,-1.66472 v 36.69344 c 0,0 -3.914676,0.0489 -5.87241,0.073 -2.771862,-1.16695 -5.543874,-2.33411 -8.316207,-3.50155 -2.747544,-2.55302 -5.495242,-5.1062 -8.24326,-7.65969 -0.145637,-3.54999 -0.291531,-7.10012 -0.437695,-10.65056 0,0 2.65e-4,2.3e-4 0,-5e-5 z"
       sodipodi:nodetypes="sccccccccccccccccccccccccccccccss"
       class="UnoptimicedTransforms"
       transform="matrix(0.95534292,0,0,0.71715689,2.7441203,190.65385)" /><path
       style="display:inline;fill:url(#radialGradient7393);fill-opacity:1;stroke-width:1.056;stroke-linecap:round;stroke-linejoin:round;stroke-miterlimit:10;paint-order:markers stroke fill"
       d="m 44.894852,370.01997 c 0.0311,-1.29148 0.103639,-4.30377 0.553556,-6.69339 0.449918,-2.38962 1.282273,-4.36987 1.784614,-4.5581 0.502341,-0.18823 0.674838,1.41521 1.422879,2.83806 0.74804,1.42286 2.070264,2.66372 2.358598,2.27545 0.288333,-0.38827 -0.457572,-2.40509 -0.456291,-4.14375 0.0013,-1.73867 0.750353,-3.19706 1.242128,-2.92487 0.491774,0.2722 0.726482,2.27501 1.145716,3.73505 0.419234,1.46005 1.022295,2.37626 1.215116,1.95879 0.19282,-0.41747 -0.02482,-2.16782 0.272112,-3.80477 0.296926,-1.63695 1.10858,-3.15874 1.480484,-3.02547 0.371903,0.13327 0.304306,1.92152 0.528735,3.72408 0.224429,1.80257 0.740622,3.61855 0.945169,3.25754 0.204547,-0.36102 0.09751,-2.89921 0.695666,-4.78696 0.598157,-1.88775 1.901325,-3.12421 2.347098,-2.96984 0.445772,0.15437 0.03425,1.69937 -0.06188,3.19941 -0.09613,1.50004 0.122985,2.95395 0.282496,2.8352 0.159512,-0.11875 0.259259,-1.81001 0.775732,-3.28593 0.516473,-1.47593 1.44951,-2.73536 1.724309,-2.32126 0.2748,0.4141 -0.108657,2.50159 0.06128,3.87228 0.169937,1.3707 0.918431,2.04734 1.097599,1.80841 0.179168,-0.23892 -0.157765,-1.34073 -0.101216,-2.73066 0.05655,-1.38994 0.533839,-2.88836 0.752043,-2.85007 0.218205,0.0383 0.259135,1.5836 0.386948,3.08101 0.127814,1.49741 0.338646,2.80993 0.466265,2.72141 0.127619,-0.0885 0.285767,-1.77969 0.605713,-2.77577 0.319946,-0.99609 0.813673,-1.54411 1.313601,-2.09902 v 36.69344 c -1.95747,0.0243 -3.914679,0.0487 -6.279449,-0.52271 -2.364771,-0.57136 -5.136783,-1.73852 -7.896744,-3.5987 -2.75996,-1.86017 -5.507659,-4.41335 -6.954616,-7.46508 -1.446958,-3.05173 -1.592854,-6.60186 -1.738763,-10.15231 z m 45.676944,0 c -0.0311,-1.29148 -0.103639,-4.30377 -0.553556,-6.69339 -0.449918,-2.38962 -1.282273,-4.36987 -1.784614,-4.5581 -0.502341,-0.18823 -0.674838,1.41521 -1.422879,2.83806 -0.74804,1.42286 -2.070264,2.66372 -2.358598,2.27545 -0.288333,-0.38827 0.457572,-2.40509 0.456291,-4.14375 -0.0013,-1.73867 -0.750353,-3.19706 -1.242128,-2.92487 -0.491774,0.2722 -0.726482,2.27501 -1.145716,3.73505 -0.419234,1.46005 -1.022295,2.37626 -1.215116,1.95879 -0.19282,-0.41747 0.02482,-2.16782 -0.272112,-3.80477 -0.296926,-1.63695 -1.10858,-3.15874 -1.480484,-3.02547 -0.371903,0.13327 -0.304306,1.92152 -0.528735,3.72408 -0.224429,1.80257 -0.740622,3.61855 -0.945169,3.25754 -0.204547,-0.36102 -0.09751,-2.89921 -0.695666,-4.78696 -0.598157,-1.88775 -1.901325,-3.12421 -2.347098,-2.96984 -0.445772,0.15437 -0.03425,1.69937 0.06188,3.19941 0.09613,1.50004 -0.122985,2.95395 -0.282496,2.8352 -0.159512,-0.11875 -0.259259,-1.81001 -0.775732,-3.28593 -0.516473,-1.47593 -1.44951,-2.73536 -1.724309,-2.32126 -0.2748,0.4141 0.108657,2.50159 -0.06128,3.87228 -0.169937,1.3707 -0.918431,2.04734 -1.097599,1.80841 -0.179168,-0.23892 0.157765,-1.34073 0.101216,-2.73066 -0.05655,-1.38994 -0.533839,-2.88836 -0.752043,-2.85007 -0.218205,0.0383 -0.259135,1.5836 -0.386948,3.08101 -0.127814,1.49741 -0.338646,2.80993 -0.466265,2.72141 -0.127619,-0.0885 -0.285767,-1.77969 -0.605713,-2.77577 -0.319946,-0.99609 -0.813673,-1.54411 -1.313601,-2.09902 v 36.69344 c 1.95747,0.0243 3.914679,0.0487 6.279449,-0.52271 2.364771,-0.57136 5.136783,-1.73852 7.896744,-3.5987 2.75996,-1.86017 5.507659,-4.41335 6.954616,-7.46508 1.446958,-3.05173 1.592854,-6.60186 1.738763,-10.15231 z"
       id="path7380"
       inkscape:path-effect="#path-effect7382;#path-effect7384"
       inkscape:original-d="m 44.863752,371.31139 c 0.06247,-2.58289 0.135009,-5.59518 0.202137,-8.39399 0.832756,-1.98031 1.665112,-3.96056 2.496982,-5.94055 0.172726,1.60337 0.345222,3.20681 0.517503,4.81043 1.323559,1.24213 2.645784,2.48299 3.968875,3.72465 -0.74627,-2.01826 -1.492175,-4.03508 -2.238938,-6.05377 0.749496,-1.45843 1.498567,-2.91682 2.247137,-4.37501 0.234892,2.00239 0.469599,4.0052 0.704079,6.00805 0.603819,0.91723 1.206881,1.83344 1.810269,2.75028 -0.21758,-1.75177 -0.435214,-3.50212 -0.653286,-5.25412 0.812012,-1.5217 1.623665,-3.04349 2.434739,-4.56495 -0.06731,1.78784 -0.134905,3.57609 -0.202776,5.36431 0.516629,1.81685 1.032823,3.63283 1.548762,5.44858 -0.106767,-2.53774 -0.213806,-5.07593 -0.321125,-7.61476 1.303638,-1.23639 2.606804,-2.47285 3.909647,-3.70951 -0.41124,1.54521 -0.822759,3.09021 -1.234615,4.63522 0.2195,1.45496 0.438616,2.90887 0.657622,4.36353 0.100077,-1.69211 0.199824,-3.38337 0.299352,-5.07567 0.933434,-1.25935 1.866471,-2.51878 2.799273,-3.77851 -0.383196,2.08777 -0.766652,4.17526 -1.150411,6.26269 0.723317,0.65391 1.471814,1.33055 2.169022,1.96081 -0.338695,-1.10817 -0.675627,-2.20998 -1.054106,-3.44705 0.491726,-1.54265 0.969015,-3.04107 1.369732,-4.30019 0.03563,1.3356 0.07656,2.8809 0.120818,4.56145 0.211332,1.31425 0.422164,2.62677 0.572804,3.56596 0.104667,-1.11617 0.262816,-2.80734 0.396291,-4.23775 0.506408,-0.56154 1.499785,-1.66472 1.499785,-1.66472 v 36.69344 c 0,0 -3.914676,0.0489 -5.87241,0.073 -2.771862,-1.16695 -5.543874,-2.33411 -8.316207,-3.50155 -2.747544,-2.55302 -5.495242,-5.1062 -8.24326,-7.65969 -0.145637,-3.54999 -0.291531,-7.10012 -0.437695,-10.65056 0,0 2.65e-4,2.3e-4 0,-5e-5 z"
       sodipodi:nodetypes="sccccccccccccccccccccccccccccccss"
       class="UnoptimicedTransforms"
       transform="translate(0.04761964,79.808195)" /><path
       style="display:inline;fill:#000000;fill-opacity:0;fill-rule:evenodd;stroke:none;stroke-width:1.056;stroke-linecap:round;stroke-linejoin:round;stroke-miterlimit:10;stroke-dasharray:none;stroke-opacity:1;paint-order:markers stroke fill"
       d="m 55.812964,427.46069 c -2.284129,1.19271 -4.342109,2.97005 -6.010326,4.41999 -1.668216,1.44995 -2.946608,2.57245 -4.030215,4.47464 -1.083606,1.90219 -1.972239,4.58368 -2.167083,7.8033 -0.194843,3.21962 0.304037,6.97685 0.810764,9.83001 0.506728,2.85316 1.021208,4.80194 1.715042,6.65726 0.693834,1.85532 1.566886,3.61702 2.642717,5.09034 1.075832,1.47331 2.354219,2.65816 3.726259,3.52339 1.37204,0.86524 2.837505,1.41089 4.279667,1.80843 1.442162,0.39754 2.860882,0.64699 4.240681,0.98222 1.3798,0.33523 2.72057,0.75617 4.318618,0.99778 1.598049,0.24161 3.453309,0.30397 5.074672,-0.0157 1.621363,-0.31965 3.008921,-1.02122 5.480142,-1.76179 2.47122,-0.74056 6.025755,-1.52006 8.839807,-4.2562 2.814052,-2.73614 4.887536,-7.42877 6.06612,-11.73684 1.178583,-4.30807 1.462093,-8.23122 1.259466,-11.38835 -0.202628,-3.15713 -0.891474,-5.54799 -1.882906,-7.81929 -0.991432,-2.2713 -2.285412,-4.42273 -3.914602,-5.84161 -1.629189,-1.41888 -3.593585,-2.10486 -6.041369,-2.81426 -2.447784,-0.7094 -5.378791,-1.44215 -8.309892,-1.83975 -2.931101,-0.3976 -5.862102,-0.45996 -8.582746,-0.18714 -2.720645,0.27282 -5.230687,0.88084 -7.514816,2.07354 z"
       id="path41057-5"
       sodipodi:nodetypes="cccccccccccccccccccccc"
       inkscape:original-d="m 55.586799,426.87607 c -2.05772,1.77761 -4.1157,3.55495 -6.17395,5.33203 -1.278182,1.12281 -2.556572,2.24531 -3.835292,3.3676 -0.888422,2.68192 -1.777056,5.36341 -2.666008,8.0448 0.499173,3.75771 0.998053,7.51494 1.496695,11.2721 0.514769,1.94914 1.029249,3.89792 1.543488,5.84652 0.873357,1.76204 1.746409,3.52374 2.619236,5.28526 1.278719,1.18517 2.557102,2.37002 3.835303,3.55467 1.465835,0.54596 2.931301,1.09161 4.396599,1.63703 1.419044,0.24972 2.837764,0.49917 4.256249,0.74836 1.3411,0.42122 2.68187,0.84216 4.02241,1.26285 1.8556,0.0626 3.71086,0.12498 5.56591,0.18708 1.38784,-0.70133 2.7754,-1.4029 4.16271,-2.10474 3.555041,-0.77929 7.109576,-1.55879 10.664066,-2.33861 2.073866,-4.69263 4.147351,-9.38526 6.22069,-14.07843 0.283789,-3.92309 0.567299,-7.84624 0.850558,-11.76983 -0.688621,-2.39074 -1.377467,-4.7816 -2.066626,-7.17289 -1.293802,-2.15131 -2.587785,-4.30274 -3.882102,-6.45456 -1.964192,-0.68573 -3.928588,-1.37171 -5.893286,-2.05797 -2.93086,-0.73252 -5.86187,-1.46526 -8.79318,-2.19829 -2.93085,-0.0621 -5.86185,-0.12447 -8.79316,-0.18709 -2.5099,0.60831 -5.01994,1.21634 -7.53031,1.82411 z"
       inkscape:path-effect="#path-effect41059-0" /><path
       style="display:inline;fill:#696969;fill-opacity:0.439216;stroke-width:1.056;stroke-linecap:round;stroke-linejoin:round;stroke-miterlimit:10;paint-order:markers stroke fill"
       id="path5708"
       sodipodi:type="arc"
       sodipodi:cx="67.625145"
       sodipodi:cy="368.92065"
       sodipodi:rx="25.739849"
       sodipodi:ry="24.862942"
       sodipodi:start="0"
       sodipodi:end="5.6843606"
       sodipodi:arc-type="arc"
       d="m 93.364994,368.92065 a 25.739849,24.862942 0 0 1 -21.900812,24.58485 25.739849,24.862942 0 0 1 -28.43372,-17.2513 25.739849,24.862942 0 0 1 13.41917,-29.73083 25.739849,24.862942 0 0 1 32.436594,8.38274"
       transform="translate(0.04761964,79.808195)"
       sodipodi:open="true" /><path
       style="display:inline;fill:#000000;stroke-width:1.05825"
       d="m 420.87374,42.805057 c 0,0 3.36085,-0.19807 7.29522,0.477477 4.90568,0.842322 10.81032,2.835408 13.44753,5.858869 6.36237,7.294232 7.17032,22.665021 2.4073,32.385943 -1.98559,4.052415 -4.05136,6.661046 -7.10361,8.931159 -2.62763,1.954299 -5.92908,2.921801 -9.12297,3.644844 -2.24003,0.507106 -6.87552,0.448681 -6.87552,0.448681 v -3.859748 c 0,0 10.07019,-0.02688 13.69098,-2.976689 5.39817,-4.397812 7.9744,-12.148238 8.47208,-19.093255 0.40036,-5.58692 -0.67106,-12.139072 -4.55564,-16.174417 -2.17851,-2.263057 -6.45332,-4.073301 -10.37427,-4.938857 -3.79917,-0.838672 -7.2811,-0.767558 -7.2811,-0.767558 z m -0.0121,1.4e-5 c 0,0 -3.36129,-0.19033 -7.2941,0.494276 -4.90373,0.853616 -10.80376,2.860295 -13.434,5.889821 -6.34556,7.308864 -7.11811,22.681473 -2.33271,32.391401 1.99491,4.047831 4.06668,6.651698 7.12415,8.914776 2.63213,1.948243 5.9358,2.90814 9.13134,3.623826 2.2412,0.501946 6.87654,0.432846 6.87654,0.432846 l -0.009,-3.859738 c 0,0 -10.07022,-0.0037 -13.6978,-2.945152 -5.40828,-4.385369 -8.00235,-12.129842 -8.51603,-19.073695 -0.41322,-5.585983 0.64311,-12.140585 4.51839,-16.184865 2.17329,-2.268068 6.44392,-4.088151 10.36286,-4.962734 3.79723,-0.847419 7.27932,-0.784323 7.27932,-0.784323 z"
       id="path40891"
       sodipodi:nodetypes="csssaaccaasscc"
       transform="matrix(-1,0,0,1,488.68147,380.1396)"
       inkscape:original-d="m 420.87374,42.805057 c 0,0 3.36085,-0.19807 7.29522,0.477477 4.90568,0.842322 10.81032,2.835408 13.44753,5.858869 6.36237,7.294232 7.17032,22.665021 2.4073,32.385943 -1.98559,4.052415 -4.05136,6.661046 -7.10361,8.931159 -2.62763,1.954299 -5.92908,2.921801 -9.12297,3.644844 -2.24003,0.507106 -6.87552,0.448681 -6.87552,0.448681 v -3.859748 c 0,0 10.07019,-0.02688 13.69098,-2.976689 5.39817,-4.397812 7.9744,-12.148238 8.47208,-19.093255 0.40036,-5.58692 -0.67106,-12.139072 -4.55564,-16.174417 -2.17851,-2.263057 -6.45332,-4.073301 -10.37427,-4.938857 -3.79917,-0.838672 -7.2811,-0.767558 -7.2811,-0.767558 z"
       inkscape:path-effect="#path-effect40992"
       class="UnoptimicedTransforms" /></g></svg>
