<?xml version="1.0" encoding="UTF-8" standalone="no"?>
<!-- Created with Inkscape (http://www.inkscape.org/) -->

<svg
   width="512"
   height="512"
   viewBox="0 0 135.46665 135.46665"
   version="1.1"
   id="svg5"
   inkscape:export-filename="Female_BetaBear_south.png"
   inkscape:export-xdpi="96"
   inkscape:export-ydpi="96"
   inkscape:version="1.2.1 (9c6d41e410, 2022-07-14)"
   sodipodi:docname="Beta_Bear_Head_Male.svg"
   xml:space="preserve"
   xmlns:inkscape="http://www.inkscape.org/namespaces/inkscape"
   xmlns:sodipodi="http://sodipodi.sourceforge.net/DTD/sodipodi-0.dtd"
   xmlns="http://www.w3.org/2000/svg"
   xmlns:svg="http://www.w3.org/2000/svg"><sodipodi:namedview
     id="namedview7"
     pagecolor="#ffffff"
     bordercolor="#666666"
     borderopacity="1.0"
     inkscape:pageshadow="2"
     inkscape:pageopacity="0.0"
     inkscape:pagecheckerboard="0"
     inkscape:document-units="px"
     showgrid="false"
     units="px"
     inkscape:object-paths="true"
     showguides="true"
     width="512px"
     inkscape:zoom="0.6411608"
     inkscape:cx="-400.05565"
     inkscape:cy="761.89935"
     inkscape:window-width="2975"
     inkscape:window-height="1546"
     inkscape:window-x="486"
     inkscape:window-y="325"
     inkscape:window-maximized="0"
     inkscape:current-layer="g3136"
     inkscape:showpageshadow="2"
     inkscape:deskcolor="#d1d1d1"><inkscape:grid
       type="xygrid"
       id="grid85961"
       originx="0"
       originy="0" /><sodipodi:guide
       position="0,135.46665"
       orientation="0,512"
       id="guide38033"
       inkscape:locked="false" /><sodipodi:guide
       position="67.769798,-260.72041"
       orientation="-1,0"
       id="guide38035"
       inkscape:locked="false"
       inkscape:label=""
       inkscape:color="rgb(0,134,229)" /><sodipodi:guide
       position="135.46664,3.0079639e-14"
       orientation="0,-512"
       id="guide38037"
       inkscape:locked="false" /><sodipodi:guide
       position="0,3.0079639e-14"
       orientation="-512,0"
       id="guide38039"
       inkscape:locked="false" /><sodipodi:guide
       position="420.94946,119.65766"
       orientation="1,0"
       id="guide40893"
       inkscape:locked="false" /><sodipodi:guide
       position="0,135.46665"
       orientation="0,511.99997"
       id="guide40984"
       inkscape:locked="false" /><sodipodi:guide
       position="135.46664,135.46665"
       orientation="511.99997,0"
       id="guide40986"
       inkscape:locked="false" /><sodipodi:guide
       position="135.46664,8.0744416e-06"
       orientation="0,-511.99997"
       id="guide40988"
       inkscape:locked="false" /><sodipodi:guide
       position="0,8.0744416e-06"
       orientation="-511.99997,0"
       id="guide40990"
       inkscape:locked="false" /><sodipodi:guide
       position="0,135.46665"
       orientation="0,511.99997"
       id="guide2716"
       inkscape:locked="false" /><sodipodi:guide
       position="135.46664,135.46665"
       orientation="511.99997,0"
       id="guide2718"
       inkscape:locked="false" /><sodipodi:guide
       position="135.46664,8.0744416e-06"
       orientation="0,-511.99997"
       id="guide2720"
       inkscape:locked="false" /><sodipodi:guide
       position="0,8.0744416e-06"
       orientation="-511.99997,0"
       id="guide2722"
       inkscape:locked="false" /><sodipodi:guide
       position="-772.05407,181.50414"
       orientation="1,0"
       id="guide2724"
       inkscape:locked="false" /></sodipodi:namedview><defs
     id="defs2"><inkscape:path-effect
       effect="bspline"
       id="path-effect837"
       is_visible="true"
       lpeversion="1"
       weight="33.333333"
       steps="2"
       helper_size="0"
       apply_no_weight="true"
       apply_with_weight="true"
       only_selected="false" /><inkscape:path-effect
       effect="mirror_symmetry"
       start_point="67.733325,0"
       end_point="67.733325,135.46665"
       center_point="67.733325,67.733325"
       id="path-effect2840"
       is_visible="true"
       lpeversion="1.2"
       lpesatellites=""
       mode="vertical"
       discard_orig_path="false"
       fuse_paths="false"
       oposite_fuse="false"
       split_items="false"
       split_open="false"
       link_styles="false" /><inkscape:path-effect
       effect="mirror_symmetry"
       start_point="67.733313,0"
       end_point="67.733313,135.46665"
       center_point="67.733313,67.733325"
       id="path-effect38956"
       is_visible="true"
       lpeversion="1.2"
       lpesatellites=""
       mode="vertical"
       discard_orig_path="false"
       fuse_paths="false"
       oposite_fuse="false"
       split_items="false"
       split_open="false"
       link_styles="false" /><inkscape:path-effect
       effect="bspline"
       id="path-effect38952"
       is_visible="true"
       lpeversion="1"
       weight="33.333333"
       steps="2"
       helper_size="0"
       apply_no_weight="true"
       apply_with_weight="true"
       only_selected="false" /><inkscape:path-effect
       effect="mirror_symmetry"
       start_point="67.733325,0"
       end_point="67.733325,135.46665"
       center_point="67.733325,67.733325"
       id="path-effect38948"
       is_visible="true"
       lpeversion="1.2"
       lpesatellites=""
       mode="vertical"
       discard_orig_path="false"
       fuse_paths="false"
       oposite_fuse="false"
       split_items="false"
       split_open="false"
       link_styles="false" /><inkscape:path-effect
       effect="bspline"
       id="path-effect38946"
       is_visible="true"
       lpeversion="1"
       weight="33.333333"
       steps="2"
       helper_size="0"
       apply_no_weight="true"
       apply_with_weight="true"
       only_selected="false" /><inkscape:path-effect
       effect="mirror_symmetry"
       start_point="67.733325,0"
       end_point="67.733325,135.46665"
       center_point="67.733325,67.733325"
       id="path-effect38877"
       is_visible="true"
       lpeversion="1.2"
       lpesatellites=""
       mode="vertical"
       discard_orig_path="false"
       fuse_paths="false"
       oposite_fuse="false"
       split_items="false"
       split_open="false"
       link_styles="false" /><inkscape:path-effect
       effect="bspline"
       id="path-effect38875"
       is_visible="true"
       lpeversion="1"
       weight="33.333333"
       steps="2"
       helper_size="0"
       apply_no_weight="true"
       apply_with_weight="true"
       only_selected="false" /><inkscape:path-effect
       effect="mirror_symmetry"
       start_point="67.701497,3.7345147"
       end_point="67.701497,139.20116"
       center_point="67.701497,71.46784"
       id="path-effect38870"
       is_visible="true"
       lpeversion="1.2"
       lpesatellites=""
       mode="vertical"
       discard_orig_path="false"
       fuse_paths="false"
       oposite_fuse="false"
       split_items="false"
       split_open="false"
       link_styles="false" /><inkscape:path-effect
       effect="mirror_symmetry"
       start_point="67.701483,3.7345147"
       end_point="67.701483,139.20116"
       center_point="67.701483,71.46784"
       id="path-effect38868"
       is_visible="true"
       lpeversion="1.2"
       lpesatellites=""
       mode="vertical"
       discard_orig_path="false"
       fuse_paths="false"
       oposite_fuse="false"
       split_items="false"
       split_open="false"
       link_styles="false" /><linearGradient
       id="linearGradient17330"
       inkscape:swatch="solid"><stop
         style="stop-color:#000000;stop-opacity:1;"
         offset="0"
         id="stop17328" /></linearGradient><inkscape:path-effect
       effect="bspline"
       id="path-effect2812"
       is_visible="true"
       lpeversion="1"
       weight="33.333333"
       steps="2"
       helper_size="0"
       apply_no_weight="true"
       apply_with_weight="true"
       only_selected="false" /><inkscape:path-effect
       effect="mirror_symmetry"
       start_point="67.689368,-0.05963059"
       end_point="67.689368,135.40702"
       center_point="67.689368,67.673694"
       id="path-effect38877-0"
       is_visible="true"
       lpeversion="1.2"
       lpesatellites=""
       mode="vertical"
       discard_orig_path="false"
       fuse_paths="false"
       oposite_fuse="false"
       split_items="false"
       split_open="false"
       link_styles="false" /><inkscape:path-effect
       effect="bspline"
       id="path-effect38875-6"
       is_visible="true"
       lpeversion="1"
       weight="33.333333"
       steps="2"
       helper_size="0"
       apply_no_weight="true"
       apply_with_weight="true"
       only_selected="false" /><inkscape:path-effect
       effect="bspline"
       id="path-effect2812-8"
       is_visible="true"
       lpeversion="1"
       weight="33.333333"
       steps="2"
       helper_size="0"
       apply_no_weight="true"
       apply_with_weight="true"
       only_selected="false" /><inkscape:path-effect
       effect="mirror_symmetry"
       start_point="68.205782,0.1393553"
       end_point="68.205782,135.60601"
       center_point="68.205782,67.87268"
       id="path-effect2840-5"
       is_visible="true"
       lpeversion="1.2"
       lpesatellites=""
       mode="vertical"
       discard_orig_path="false"
       fuse_paths="false"
       oposite_fuse="false"
       split_items="false"
       split_open="false"
       link_styles="false" /></defs><g
     id="g3122"
     style="display:inline"><path
       style="fill:#ffffff;fill-opacity:1;stroke-width:1.056;stroke-linecap:round;stroke-linejoin:round;stroke-miterlimit:10;paint-order:markers stroke fill"
       d="m 58.606881,43.42414 c -4.014943,1.745214 -8.743375,4.77141 -11.554704,8.571517 -2.811329,3.800107 -3.705414,8.373696 -3.464621,13.368745 0.240794,4.995049 1.616309,10.411142 3.748518,14.649545 2.13221,4.238403 5.020793,7.298926 7.59999,9.379387 2.579198,2.080461 4.848799,3.180873 7.075471,3.911582 2.226672,0.730708 4.410304,1.091781 6.808869,0.885392 2.398565,-0.206389 5.012044,-0.980116 8.003806,-2.897292 2.991761,-1.917175 6.361775,-4.977698 9.078459,-8.493913 2.716685,-3.516215 4.77996,-7.488017 5.863224,-11.786555 1.083264,-4.298539 1.186428,-8.923712 0.266615,-12.758045 -0.919813,-3.834332 -2.862728,-6.877659 -5.476235,-9.370912 -2.613507,-2.493254 -5.897551,-4.436169 -8.897984,-5.700014 -3.000432,-1.263845 -5.717076,-1.848439 -8.726151,-1.908663 -3.009076,-0.06022 -6.310314,0.404013 -10.325257,2.149226 z"
       id="path835"
       inkscape:path-effect="#path-effect837"
       inkscape:original-d="m 59.320298,42.143204 c -4.728164,3.026457 -9.456596,6.052652 -14.185289,9.078583 -0.893855,4.574037 -1.787941,9.147626 -2.682309,13.721044 1.375836,5.416573 2.751352,10.832665 4.126629,16.248603 2.888964,3.060908 5.777547,6.121431 8.665921,9.181749 2.269958,1.100722 4.539559,2.201135 6.80894,3.301304 2.183981,0.361352 4.367614,0.722424 6.551024,1.083241 2.613848,-0.773496 5.227327,-1.547222 7.840595,-2.321229 3.370413,-3.060382 6.740427,-6.120904 10.110242,-9.181752 2.06362,-3.971694 4.126893,-7.943497 6.189944,-11.915641 0.103434,-4.625091 0.206598,-9.250264 0.309497,-13.875791 -1.94273,-3.043187 -3.885644,-6.086514 -5.828863,-9.130169 -3.28391,-1.942729 -6.567955,-3.885644 -9.852328,-5.828863 -2.716487,-0.584353 -5.433131,-1.168947 -8.150094,-1.753817 -3.301103,0.464519 -6.602341,0.928757 -9.903909,1.392738 z" /><g
       id="g45163"
       style="display:inline"><g
         id="g39135"><g
           id="g37716"
           transform="translate(0.03182796,-3.7345147)"
           style="display:inline"><path
             style="display:inline;fill:#686868;fill-opacity:0.441103;fill-rule:evenodd;stroke:none;stroke-width:1.056;stroke-linecap:round;stroke-linejoin:round;stroke-miterlimit:10;stroke-dasharray:none;stroke-opacity:1;paint-order:markers stroke fill"
             d="m 93.266994,68.874873 c -0.02251,-1.504996 -0.04501,-3.009724 -0.38697,-5.404858 -0.34196,-2.395134 -1.003404,-5.680309 -2.34831,-8.689976 -1.344906,-3.009667 -3.373338,-5.74364 -5.655346,-7.728098 -2.282008,-1.984459 -4.817546,-3.219156 -7.716985,-4.070037 -2.899439,-0.850881 -6.162869,-1.317833 -9.426069,-1.784751 l -2e-6,3e-6 10e-7,33.7626 c 0.573268,-0.733116 1.146509,-1.466198 1.775019,-1.89894 0.62851,-0.432743 1.312005,-0.565032 2.169132,-0.754246 0.857128,-0.189215 1.887835,-0.435333 2.960685,-0.566842 1.072851,-0.131509 2.187659,-0.148435 3.2047,0.195236 1.017042,0.343672 1.935895,1.047461 2.855059,1.751489 l 1.121058,0.120016 c -0.233861,0.07016 -0.468038,0.140411 -0.5653,0.26519 -0.09726,0.124779 -0.05829,0.304068 -0.07012,0.43274 -0.01183,0.128672 -0.07419,0.206623 -0.230133,0.261063 -0.155941,0.05444 -0.405388,0.08562 -0.455906,0.179151 -0.05052,0.09353 0.09759,0.249434 0.175551,0.378175 0.07796,0.128741 0.08576,0.230081 -0.04693,0.304042 -0.132684,0.07396 -0.405514,0.120732 -0.627687,0.198759 -0.222174,0.07803 -0.393669,0.187159 -0.627535,0.32747 -0.233866,0.140311 -0.530084,0.311806 -1.001711,0.56515 -0.471627,0.253344 -1.118629,0.588537 -1.773294,0.452025 -0.654666,-0.136512 -1.317258,-0.744538 -1.648554,-1.048551 -0.331296,-0.304013 -0.331295,-0.30401 -0.483373,0.05084 -0.152078,0.354848 -0.456098,1.064225 -0.385841,2.124332 0.07026,1.060106 0.514583,2.471037 0.966717,4.018439 0.452134,1.547402 0.912052,3.231168 1.1576,4.154934 0.245549,0.923766 0.276729,1.087467 0.183065,1.344768 -0.09366,0.257301 -0.311928,0.608082 -0.682241,1.075796 -0.370313,0.467713 -0.892593,1.052354 -1.859259,1.82017 -0.966667,0.767815 -2.377599,1.718829 -2.560729,2.295565 -0.183131,0.576736 0.861425,0.779411 2.615353,0.159778 1.753927,-0.619634 4.217211,-2.061746 6.446729,-3.80009 2.229519,-1.738344 4.225092,-3.772893 5.717932,-5.437201 1.492839,-1.664308 2.483055,-2.958608 3.473066,-4.252638 M 42.199632,68.874873 c 0.02251,-1.504996 0.04501,-3.009724 0.38697,-5.404858 0.34196,-2.395134 1.003404,-5.680309 2.34831,-8.689976 1.344906,-3.009667 3.373338,-5.74364 5.655346,-7.728098 2.282008,-1.984459 4.817546,-3.219156 7.716985,-4.070037 2.899439,-0.850881 6.162869,-1.317833 9.426069,-1.784751 l 2e-6,3e-6 -10e-7,33.7626 c -0.573268,-0.733116 -1.146509,-1.466198 -1.775019,-1.89894 -0.62851,-0.432743 -1.312005,-0.565032 -2.169133,-0.754246 -0.857127,-0.189215 -1.887834,-0.435333 -2.960684,-0.566842 -1.072851,-0.131509 -2.187659,-0.148435 -3.204701,0.195236 -1.017041,0.343672 -1.935894,1.047461 -2.855058,1.751489 l -1.121058,0.120016 c 0.233861,0.07016 0.468038,0.140411 0.5653,0.26519 0.09726,0.124779 0.05829,0.304068 0.07012,0.43274 0.01183,0.128672 0.07419,0.206623 0.230133,0.261063 0.155941,0.05444 0.405388,0.08562 0.455906,0.179151 0.05052,0.09353 -0.09759,0.249434 -0.175551,0.378175 -0.07796,0.128741 -0.08576,0.230081 0.04693,0.304042 0.132684,0.07396 0.405514,0.120732 0.627687,0.198759 0.222174,0.07803 0.393669,0.187159 0.627535,0.32747 0.233866,0.140311 0.530084,0.311806 1.001711,0.56515 0.471627,0.253344 1.118629,0.588537 1.773294,0.452025 0.654666,-0.136512 1.317258,-0.744538 1.648554,-1.048551 0.331296,-0.304013 0.331295,-0.30401 0.483373,0.05084 0.152078,0.354848 0.456097,1.064225 0.385841,2.124332 -0.07026,1.060106 -0.514583,2.471037 -0.966717,4.018439 -0.452134,1.547402 -0.912052,3.231168 -1.1576,4.154934 -0.245549,0.923766 -0.276729,1.087467 -0.183065,1.344768 0.09366,0.257301 0.311927,0.608082 0.682241,1.075796 0.370313,0.467713 0.892593,1.052354 1.859259,1.82017 0.966666,0.767815 2.377599,1.718829 2.560729,2.295565 0.183131,0.576736 -0.861425,0.779411 -2.615353,0.159778 -1.753927,-0.619634 -4.217211,-2.061746 -6.44673,-3.80009 C 52.891733,87.627869 50.89616,85.59332 49.40332,83.929012 47.910481,82.264704 46.920265,80.970404 45.930254,79.676374"
             id="path38950"
             sodipodi:nodetypes="ccccccccccccccccccccccccssccccccccccc"
             transform="matrix(-1,0,0,1,135.43481,3.7345147)"
             inkscape:original-d="m 93.266994,68.874873 c 0,0 -0.04475,-3.009728 -0.06752,-4.514988 -0.661206,-3.285045 -1.322651,-6.57022 -1.984374,-9.855728 -2.028248,-2.733818 -4.056679,-5.467791 -6.085416,-8.202082 -2.535378,-1.234483 -5.070916,-2.469179 -7.60677,-3.704167 -3.263012,-0.466589 -9.7896,-1.400755 -9.7896,-1.400755 l -2e-6,3e-6 10e-7,33.7626 c 0,0 1.146473,-1.466226 1.719804,-2.199349 0.683784,-0.132029 1.367279,-0.264318 2.050521,-0.396874 1.031028,-0.245867 2.061735,-0.491986 3.092234,-0.738383 1.115132,-0.01666 2.22994,-0.03359 3.344544,-0.05078 0.919445,0.704305 2.757492,2.112083 2.757492,2.112083 l 1.121058,0.120016 c 0,0 -0.467987,0.140581 -0.701582,0.210474 0.03871,0.179562 0.07769,0.358851 0.11693,0.537882 -0.06263,0.07822 -0.124992,0.15617 -0.187089,0.23386 -0.249722,0.03145 -0.499169,0.06263 -0.748356,0.09354 0.147852,0.156176 0.29596,0.312079 0.444336,0.467722 0.0075,0.101606 0.01532,0.202944 0.02339,0.30402 -0.273108,0.04704 -0.545938,0.09381 -0.818512,0.140316 -0.171767,0.1094 -0.34326,0.218536 -0.514495,0.327404 -0.296493,0.171767 -0.592712,0.343262 -0.88867,0.514495 -0.647292,0.335471 -1.294293,0.670666 -1.941046,1.005602 -0.662882,-0.607788 -1.325475,-1.215813 -1.987815,-1.824114 l 10e-7,3e-6 c -0.304284,0.709641 -0.608304,1.419018 -0.912059,2.128133 0.44408,1.411253 0.888408,2.822183 1.333008,4.232881 0.459669,1.684093 0.919586,3.367859 1.379778,5.051392 0.03092,0.16397 0.0621,0.327671 0.09354,0.491107 -0.218538,0.351065 -0.436803,0.701846 -0.65481,1.052374 -0.522565,0.584928 -1.044844,1.16957 -1.566867,1.753957 -1.411253,0.951318 -2.822186,1.902331 -4.232881,2.8531 1.044335,0.202949 2.088891,0.405625 3.133736,0.608039 2.463117,-1.441905 4.9264,-2.884019 7.389999,-4.326424 1.995389,-2.034365 3.990961,-4.068915 5.986838,-6.103767 0.989766,-1.293791 2.970032,-3.882091 2.970032,-3.882091"
             inkscape:path-effect="#path-effect38952;#path-effect38956"
             class="UnoptimicedTransforms" /><path
             style="display:inline;fill:#a4a4a4;fill-opacity:1;stroke-width:1.05615"
             d="m 67.701496,44.285412 c 11.627814,0 15.735256,4.436369 19.416305,7.582545 3.262925,2.788807 5.575422,8.499799 5.880548,19.338341 0.02648,0.940662 -0.0206,4.204182 -0.568106,6.841016 -0.360227,1.734875 -1.860327,2.381994 -1.810022,1.818021 0.28769,-3.225343 1.412761,-10.040536 1.194412,-10.567852 -1.125985,-2.719276 -2.805157,-5.878291 -3.6349,-7.437228 -0.151613,-0.284853 -0.725957,-0.672084 -1.185227,-0.384232 -0.679854,0.426103 -1.302562,1.635014 -1.513052,1.186395 -0.335322,-0.714677 0.880216,-2.344314 0.466428,-2.996317 -0.132681,-0.209063 -0.667966,-0.81714 -0.982503,-0.647655 -0.52431,0.28252 -0.892787,1.477744 -1.115705,1.132976 -0.520111,-0.804412 0.56512,-2.794769 -0.0652,-3.516875 -1.451108,-1.662405 -4.162544,-4.574837 -6.870382,-5.512926 -0.586714,-0.203258 -1.262413,1.692108 -1.825246,1.466585 -0.61101,-0.244827 -0.501378,-2.084519 -1.112636,-2.234186 -0.563534,-0.137982 -1.146465,1.758283 -1.695278,1.614551 C 71.44233,51.748944 71.23855,50.982292 70.547077,50.507102 69.779507,49.979618 68.530948,49.75154 67.701496,49.75154 m 2e-6,-5.466128 c -11.627814,0 -15.735256,4.436369 -19.416305,7.582545 -3.262925,2.788807 -5.575422,8.499799 -5.880548,19.338341 -0.02648,0.940662 0.0206,4.204182 0.568106,6.841016 0.360227,1.734875 1.860327,2.381994 1.810022,1.818021 -0.28769,-3.225343 -1.412761,-10.040536 -1.194412,-10.567852 1.125985,-2.719276 2.805157,-5.878291 3.6349,-7.437228 0.151613,-0.284853 0.725957,-0.672084 1.185227,-0.384232 0.679854,0.426103 1.302562,1.635014 1.513052,1.186395 0.335322,-0.714677 -0.880216,-2.344314 -0.466428,-2.996317 0.132681,-0.209063 0.667966,-0.81714 0.982503,-0.647655 0.52431,0.28252 0.892787,1.477744 1.115705,1.132976 0.520111,-0.804412 -0.56512,-2.794769 0.0652,-3.516875 1.451108,-1.662405 4.162544,-4.574837 6.870382,-5.512926 0.586714,-0.203258 1.262413,1.692108 1.825246,1.466585 0.61101,-0.244827 0.501378,-2.084519 1.112636,-2.234186 0.563534,-0.137982 1.146465,1.758283 1.695278,1.614551 0.838602,-0.219627 1.042382,-0.986279 1.733855,-1.461469 0.76757,-0.527484 2.016129,-0.755562 2.845581,-0.755562"
             id="path37732"
             sodipodi:nodetypes="csssssssssssssssssc"
             inkscape:original-d="m 67.701496,44.285412 c 11.627814,0 15.735256,4.436369 19.416305,7.582545 3.262925,2.788807 5.575422,8.499799 5.880548,19.338341 0.02648,0.940662 -0.0206,4.204182 -0.568106,6.841016 -0.360227,1.734875 -1.860327,2.381994 -1.810022,1.818021 0.28769,-3.225343 1.412761,-10.040536 1.194412,-10.567852 -1.125985,-2.719276 -2.805157,-5.878291 -3.6349,-7.437228 -0.151613,-0.284853 -0.725957,-0.672084 -1.185227,-0.384232 -0.679854,0.426103 -1.302562,1.635014 -1.513052,1.186395 -0.335322,-0.714677 0.880216,-2.344314 0.466428,-2.996317 -0.132681,-0.209063 -0.667966,-0.81714 -0.982503,-0.647655 -0.52431,0.28252 -0.892787,1.477744 -1.115705,1.132976 -0.520111,-0.804412 0.56512,-2.794769 -0.0652,-3.516875 -1.451108,-1.662405 -4.162544,-4.574837 -6.870382,-5.512926 -0.586714,-0.203258 -1.262413,1.692108 -1.825246,1.466585 -0.61101,-0.244827 -0.501378,-2.084519 -1.112636,-2.234186 -0.563534,-0.137982 -1.146465,1.758283 -1.695278,1.614551 C 71.44233,51.748944 71.23855,50.982292 70.547077,50.507102 69.779507,49.979618 68.530948,49.75154 67.701496,49.75154"
             inkscape:path-effect="#path-effect38870"
             class="UnoptimicedTransforms" /><path
             style="display:inline;fill:#8e5353;fill-opacity:1;fill-rule:nonzero;stroke:none;stroke-width:1.056;stroke-linecap:round;stroke-linejoin:round;stroke-miterlimit:10;stroke-opacity:1;paint-order:markers stroke fill"
             d="m 46.195857,57.411587 c -0.03768,-0.447068 -0.02521,-0.299167 0.165871,-0.566913 0.191084,-0.267745 0.710069,-0.470932 0.811368,-0.725259 0.101298,-0.254326 -0.126737,-1.094849 -0.02367,-1.27651 0.103071,-0.18166 0.540989,-0.222426 1.035431,-0.546363 0.494442,-0.323937 0.631053,-0.5607 0.73719,-1.03907 0.106138,-0.47837 0.07348,-0.983196 0.575294,-1.57383 0.501817,-0.590634 0.303673,-0.463833 1.396213,-0.801029 1.09254,-0.337197 1.061199,-0.05666 1.056305,-0.04823 -0.0049,0.0084 -0.882878,0.969863 -1.13919,1.569056 -0.256312,0.599193 -0.325434,1.311716 -0.754136,1.805611 -0.428701,0.493896 -1.217157,0.769455 -1.583026,1.087701 -0.365868,0.318246 -0.30909,0.678528 -0.252264,1.039108 -0.397344,0.424332 -0.794697,0.848673 -1.125896,1.102442 -0.331199,0.253769 -0.596427,0.337036 -0.729122,0.378695 -0.132695,0.04166 -0.132696,0.04166 -0.170372,-0.405409 z m 44.01985,0 c 0.03768,-0.447068 0.02521,-0.299167 -0.165871,-0.566913 -0.191084,-0.267745 -0.710069,-0.470932 -0.811367,-0.725259 -0.101299,-0.254326 0.126736,-1.094849 0.02367,-1.27651 -0.103071,-0.18166 -0.540988,-0.222426 -1.035431,-0.546363 -0.494442,-0.323937 -0.631053,-0.5607 -0.73719,-1.03907 -0.106138,-0.47837 -0.07348,-0.983196 -0.575293,-1.57383 -0.501818,-0.590634 -0.303674,-0.463833 -1.396214,-0.801029 -1.09254,-0.337197 -1.061199,-0.05666 -1.056305,-0.04823 0.0049,0.0084 0.882878,0.969863 1.13919,1.569056 0.256312,0.599193 0.325435,1.311716 0.754136,1.805611 0.428701,0.493896 1.217157,0.769455 1.583026,1.087701 0.365868,0.318246 0.30909,0.678528 0.252264,1.039108 0.397345,0.424332 0.794697,0.848673 1.125896,1.102442 0.331199,0.253769 0.596427,0.337036 0.729122,0.378695 0.132695,0.04166 0.132696,0.04166 0.170372,-0.405409 z"
             id="path2810-8"
             inkscape:path-effect="#path-effect2812-8;#path-effect2840-5"
             inkscape:original-d="m 46.233534,57.858655 c -0.735263,-0.838522 -0.06265,-0.746255 -0.09437,-1.11978 0.413773,-0.161627 0.932758,-0.364814 1.240525,-0.485675 -0.105115,-0.38816 -0.33315,-1.228683 -0.424393,-1.564288 0.264314,-0.380989 0.735149,-0.06815 1.3851,-0.12894 0.33922,-0.587186 0.475831,-0.823949 0.722049,-1.251397 -0.03401,-0.529489 -0.06667,-1.034315 -0.100404,-1.55187 1.037318,-0.663389 0.839174,-0.536588 3.11116,-1.990961 -0.08681,0.779705 -0.118153,1.060241 -0.119226,1.067208 -0.0087,0.01014 -0.886714,0.971546 -1.330468,1.456922 -0.06886,0.712786 -0.137981,1.425309 -0.207368,2.137566 -0.788192,0.275824 -1.576648,0.551383 -2.365369,0.826678 0.05709,0.360845 0.170477,1.081741 0.170477,1.081741 0,0 -0.794424,0.848929 -1.192033,1.272997 -0.264963,0.08353 -0.530191,0.166797 -0.795683,0.249799 2.66e-4,2.65e-4 3e-6,0 3e-6,0 z"
             sodipodi:nodetypes="caaaccaccaaacaac"
             class="UnoptimicedTransforms"
             transform="translate(-0.50428507,3.5951594)" /><path
             style="display:inline;fill:#000000;fill-opacity:1;stroke-width:1.05615"
             d="m 67.701496,43.08602 c 6.656648,-0.21381 13.272002,1.889574 18.615893,5.993331 1.370267,1.052275 2.634455,2.255613 3.742777,3.583556 2.362955,2.831189 4.01743,6.228767 4.480947,9.936332 0.863809,6.909402 -0.05507,14.187642 -3.059809,20.415754 -1.371592,2.842989 -3.177816,5.467162 -5.447507,7.737552 -3.341456,3.342484 -6.916249,6.413687 -11.628588,8.145607 -1.923036,0.706771 -6.703713,0.637861 -6.703713,0.637861 v -3.761368 c 0,0 1.845809,1.272565 4.795217,0.187292 3.747154,-1.378814 8.922169,-5.365126 10.551748,-7.498134 4.747499,-4.630654 6.611513,-7.812188 7.868086,-14.547464 C 91.5171,69.553567 91.425487,64.959514 90.061662,60.744441 87.932141,55.236312 83.12793,51.161198 77.978784,48.539543 74.758129,47.108076 71.179317,46.841868 67.701496,46.706616 m -2.6e-5,-3.620596 c -6.656648,-0.21381 -13.272002,1.889574 -18.615893,5.993331 -1.370267,1.052275 -2.634455,2.255613 -3.742777,3.583556 -2.362955,2.831189 -4.01743,6.228767 -4.480947,9.936332 -0.863809,6.909402 0.05507,14.187642 3.059809,20.415754 1.371592,2.842989 3.177816,5.467162 5.447507,7.737552 3.341456,3.342484 6.916249,6.413687 11.628588,8.145607 1.923036,0.706771 6.703713,0.637861 6.703713,0.637861 v -3.761368 c 0,0 -1.845809,1.272565 -4.795217,0.187292 -3.747154,-1.378814 -8.922169,-5.365126 -10.551748,-7.498134 -4.747499,-4.630654 -6.611513,-7.812188 -7.868086,-14.547464 -0.600553,-4.362772 -0.50894,-8.956825 0.854885,-13.171898 2.129521,-5.508129 6.933732,-9.583243 12.082878,-12.204898 3.220655,-1.431467 6.799467,-1.697675 10.277288,-1.832927"
             id="path37718"
             sodipodi:nodetypes="cssssssccscssss"
             inkscape:original-d="m 67.701496,43.08602 c 6.656648,-0.21381 13.272002,1.889574 18.615893,5.993331 1.370267,1.052275 2.634455,2.255613 3.742777,3.583556 2.362955,2.831189 4.01743,6.228767 4.480947,9.936332 0.863809,6.909402 -0.05507,14.187642 -3.059809,20.415754 -1.371592,2.842989 -3.177816,5.467162 -5.447507,7.737552 -3.341456,3.342484 -6.916249,6.413687 -11.628588,8.145607 -1.923036,0.706771 -6.703713,0.637861 -6.703713,0.637861 v -3.761368 c 0,0 1.845809,1.272565 4.795217,0.187292 3.747154,-1.378814 8.922169,-5.365126 10.551748,-7.498134 4.747499,-4.630654 6.611513,-7.812188 7.868086,-14.547464 C 91.5171,69.553567 91.425487,64.959514 90.061662,60.744441 87.932141,55.236312 83.12793,51.161198 77.978784,48.539543 74.758129,47.108076 71.179317,46.841868 67.701496,46.706616"
             inkscape:path-effect="#path-effect38868"
             class="UnoptimicedTransforms"
             transform="matrix(-1,0,0,1,135.40298,0)" /></g></g><path
         style="display:inline;fill:#000000;fill-opacity:1;fill-rule:evenodd;stroke:none;stroke-width:1.056;stroke-linecap:round;stroke-linejoin:round;stroke-miterlimit:10;stroke-dasharray:none;stroke-opacity:1;paint-order:markers stroke fill"
         d="m 60.465118,78.124962 c 0.325306,-0.06493 0.984118,-0.196438 1.440202,-0.451969 0.456084,-0.255531 0.7232,-0.648838 0.957751,-0.996558 0.234551,-0.34772 0.453142,-0.674305 0.531114,-1.184203 0.07797,-0.509898 0.01314,-1.227312 -0.141672,-1.773061 -0.154808,-0.545749 -0.420716,-0.995508 -0.721117,-1.338596 -0.300401,-0.343087 -0.667797,-0.634478 -1.075347,-0.843116 -0.407551,-0.208638 -0.868933,-0.33837 -1.447741,-0.406884 -0.578807,-0.06851 -1.299412,-0.08266 -1.874441,0.002 -0.57503,0.08471 -1.013614,0.272175 -1.834505,0.7861 -0.820891,0.513925 -2.057941,1.372328 -2.448539,1.846786 -0.390598,0.474457 0.05692,0.581899 0.731033,0.481351 0.674112,-0.100548 1.706267,-0.444261 2.245588,-0.52239 0.539321,-0.07813 0.646527,-0.02452 0.821933,0.06319 -0.205368,0.280943 -0.43027,0.588607 -0.511233,0.971115 -0.08096,0.382508 -0.0595,0.840975 0.144688,1.441693 0.204191,0.600719 0.55192,1.044937 0.714819,1.188517 0.162899,0.14358 0.646238,0.398968 0.888777,0.507906 0.242538,0.108939 0.424118,0.161634 0.617037,0.199609 0.192919,0.03797 0.417487,0.06605 0.526916,0.07972 0.109428,0.01368 0.109431,0.01368 0.434737,-0.05126 z m 14.536414,0 c -0.325306,-0.06493 -0.984118,-0.196438 -1.440202,-0.451969 -0.456084,-0.255531 -0.7232,-0.648838 -0.957751,-0.996558 -0.234551,-0.34772 -0.453142,-0.674305 -0.531114,-1.184203 -0.07797,-0.509898 -0.01314,-1.227312 0.141672,-1.773061 0.154808,-0.545749 0.420716,-0.995508 0.721117,-1.338596 0.300401,-0.343087 0.667797,-0.634478 1.075347,-0.843116 0.407551,-0.208638 0.868933,-0.33837 1.447741,-0.406884 0.578807,-0.06851 1.299412,-0.08266 1.874441,0.002 0.57503,0.08471 1.013614,0.272175 1.834505,0.7861 0.820891,0.513925 2.057941,1.372328 2.448539,1.846786 0.390598,0.474457 -0.05692,0.581899 -0.731033,0.481351 -0.674112,-0.100548 -1.706267,-0.444261 -2.245588,-0.52239 -0.539321,-0.07813 -0.646527,-0.02452 -0.821933,0.06319 0.205368,0.280943 0.43027,0.588607 0.511233,0.971115 0.08096,0.382508 0.0595,0.840975 -0.144688,1.441693 -0.204191,0.600719 -0.55192,1.044937 -0.714819,1.188517 -0.162899,0.14358 -0.646238,0.398968 -0.888777,0.507906 -0.242538,0.108939 -0.424118,0.161634 -0.617037,0.199609 -0.192919,0.03797 -0.417487,0.06605 -0.526916,0.07972 -0.109428,0.01368 -0.109431,0.01368 -0.434737,-0.05126 z"
         id="path38873"
         sodipodi:nodetypes="scccccccccccccccccsss"
         inkscape:original-d="m 60.139812,78.189896 c 0.650673,-0.129562 1.309485,-0.261067 1.96312,-0.391855 0.258776,-0.380372 0.525893,-0.773679 0.776097,-1.142739 0.218898,-0.326383 0.43749,-0.652967 0.655775,-0.979755 -0.06241,-0.693235 -0.127245,-1.410649 -0.188058,-2.080897 -0.254002,-0.418295 -0.31301,-0.990378 -0.748355,-1.265771 -0.367414,-0.291369 -0.734809,-0.582761 -1.102188,-0.874173 -0.450495,-0.115962 -0.877484,-0.368012 -1.346097,-0.378495 -0.720609,-0.01394 -1.441214,-0.02809 -2.161814,-0.04245 -0.433396,0.174344 -0.930556,0.224771 -1.28609,0.549722 -1.223521,0.849463 -2.460571,1.707866 -3.677562,2.551901 0.435539,0.104767 0.883058,0.212209 1.31562,0.315859 0.915814,-0.304618 1.947969,-0.648331 2.782899,-0.92672 0.279701,0.04963 0.526218,0.263132 0.526218,0.263132 0,0 -0.429971,0.588826 -0.616105,0.842829 0.02416,0.510782 0.04562,0.969249 0.07921,1.692228 0.374576,0.478442 0.722305,0.92266 0.875807,1.118829 0.172208,0.09112 0.652038,0.353148 0.979339,0.517464 0.161289,0.04699 0.342867,0.09969 0.510723,0.148212 0.218005,0.02748 0.442573,0.05555 0.661458,0.08268 z"
         inkscape:path-effect="#path-effect38875;#path-effect38877"
         class="UnoptimicedTransforms" /><path
         style="display:inline;fill:#000000;fill-opacity:1;fill-rule:evenodd;stroke:none;stroke-width:1.056;stroke-linecap:round;stroke-linejoin:round;stroke-miterlimit:10;stroke-dasharray:none;stroke-opacity:1;paint-order:markers stroke fill"
         d="m 67.733324,85.476943 c -0.589521,-0.03306 -1.179321,-0.06613 -1.84357,-0.03308 -0.664248,0.03305 -1.402861,0.132267 -1.984473,0.311407 -0.581612,0.17914 -1.006037,0.438205 -1.323053,0.785554 -0.317016,0.347349 -0.526474,0.7828 -0.606356,1.210085 -0.07988,0.427286 -0.03027,0.846203 0.18481,1.27615 0.215082,0.429948 0.595413,0.87091 1.091551,1.240164 0.496137,0.369253 1.107973,0.666903 1.595776,0.994934 0.487804,0.32803 0.851598,0.686313 1.124469,0.928823 0.272871,0.24251 0.454768,0.369287 0.733125,0.442225 0.278356,0.07294 0.653171,0.09223 1.027721,0.111511 m 2e-6,-7.267773 c 0.589521,-0.03306 1.179321,-0.06613 1.84357,-0.03308 0.664248,0.03305 1.402861,0.132267 1.984473,0.311407 0.581612,0.17914 1.006037,0.438205 1.323053,0.785554 0.317016,0.347349 0.526474,0.7828 0.606356,1.210085 0.07988,0.427286 0.03027,0.846203 -0.18481,1.27615 -0.215082,0.429948 -0.595413,0.87091 -1.091551,1.240164 -0.496137,0.369253 -1.107973,0.666903 -1.595776,0.994934 -0.487804,0.32803 -0.851598,0.686313 -1.124469,0.928823 -0.272871,0.24251 -0.454768,0.369287 -0.733125,0.442225 -0.278356,0.07294 -0.653171,0.09223 -1.027721,0.111511"
         id="path38944"
         sodipodi:nodetypes="ccccccccccc"
         inkscape:original-d="m 67.733324,85.476943 c -0.589535,-0.03281 -1.179335,-0.06588 -1.7694,-0.09922 -0.738378,0.09949 -1.476991,0.198702 -2.215885,0.297656 -0.42418,0.259342 -0.848606,0.518406 -1.273307,0.777213 -0.209201,0.435735 -0.418658,0.871186 -0.628386,1.30638 0.04987,0.419196 0.09948,0.838113 0.148828,1.256771 0.380611,0.441246 0.760942,0.882208 1.141016,1.322916 0.612127,0.297927 1.223962,0.595578 1.835547,0.892969 0.364074,0.358561 0.727868,0.716844 1.091406,1.07487 0.182168,0.127047 0.364066,0.253822 0.545703,0.380338 0.3751,0.01956 0.749915,0.03885 1.124478,0.05788"
         inkscape:path-effect="#path-effect38946;#path-effect38948"
         class="UnoptimicedTransforms" /></g><path
       style="display:inline;fill:#bc8c8c;fill-opacity:1;fill-rule:nonzero;stroke:none;stroke-width:1.056;stroke-linecap:round;stroke-linejoin:round;stroke-miterlimit:10;stroke-opacity:1;paint-order:markers stroke fill"
       d="m 46.195857,57.411587 c -0.03768,-0.447068 -0.02521,-0.299167 0.165871,-0.566913 0.191084,-0.267745 0.710069,-0.470932 0.811368,-0.725259 0.101298,-0.254326 -0.126737,-1.094849 -0.02367,-1.27651 0.103071,-0.18166 0.540989,-0.222426 1.035431,-0.546363 0.494442,-0.323937 0.631053,-0.5607 0.73719,-1.03907 0.106138,-0.47837 0.07348,-0.983196 0.575294,-1.57383 0.501817,-0.590634 0.303673,-0.463833 1.396213,-0.801029 1.09254,-0.337197 1.061199,-0.05666 1.056305,-0.04823 -0.0049,0.0084 -0.882878,0.969863 -1.13919,1.569056 -0.256312,0.599193 -0.325434,1.311716 -0.754136,1.805611 -0.428701,0.493896 -1.217157,0.769455 -1.583026,1.087701 -0.365868,0.318246 -0.30909,0.678528 -0.252264,1.039108 -0.397344,0.424332 -0.794697,0.848673 -1.125896,1.102442 -0.331199,0.253769 -0.596427,0.337036 -0.729122,0.378695 -0.132695,0.04166 -0.132696,0.04166 -0.170372,-0.405409 z m 43.074936,0 c 0.03768,-0.447068 0.02521,-0.299167 -0.165871,-0.566913 -0.191084,-0.267745 -0.710069,-0.470932 -0.811368,-0.725259 -0.101298,-0.254326 0.126737,-1.094849 0.02367,-1.27651 -0.103071,-0.18166 -0.540989,-0.222426 -1.035431,-0.546363 -0.494442,-0.323937 -0.631053,-0.5607 -0.73719,-1.03907 -0.106138,-0.47837 -0.07348,-0.983196 -0.575294,-1.57383 -0.501817,-0.590634 -0.303673,-0.463833 -1.396213,-0.801029 -1.09254,-0.337197 -1.061199,-0.05666 -1.056305,-0.04823 0.0049,0.0084 0.882878,0.969863 1.13919,1.569056 0.256312,0.599193 0.325434,1.311716 0.754136,1.805611 0.428701,0.493896 1.217157,0.769455 1.583026,1.087701 0.365868,0.318246 0.30909,0.678528 0.252264,1.039108 0.397344,0.424332 0.794697,0.848673 1.125896,1.102442 0.331199,0.253769 0.596427,0.337036 0.729122,0.378695 0.132695,0.04166 0.132696,0.04166 0.170372,-0.405409 z"
       id="path2810"
       inkscape:path-effect="#path-effect2812;#path-effect2840"
       inkscape:original-d="m 46.233534,57.858655 c -0.735263,-0.838522 -0.06265,-0.746255 -0.09437,-1.11978 0.413773,-0.161627 0.932758,-0.364814 1.240525,-0.485675 -0.105115,-0.38816 -0.33315,-1.228683 -0.424393,-1.564288 0.264314,-0.380989 0.735149,-0.06815 1.3851,-0.12894 0.33922,-0.587186 0.475831,-0.823949 0.722049,-1.251397 -0.03401,-0.529489 -0.06667,-1.034315 -0.100404,-1.55187 1.037318,-0.663389 0.839174,-0.536588 3.11116,-1.990961 -0.08681,0.779705 -0.118153,1.060241 -0.119226,1.067208 -0.0087,0.01014 -0.886714,0.971546 -1.330468,1.456922 -0.06886,0.712786 -0.137981,1.425309 -0.207368,2.137566 -0.788192,0.275824 -1.576648,0.551383 -2.365369,0.826678 0.05709,0.360845 0.170477,1.081741 0.170477,1.081741 0,0 -0.794424,0.848929 -1.192033,1.272997 -0.264963,0.08353 -0.530191,0.166797 -0.795683,0.249799 2.66e-4,2.65e-4 3e-6,0 3e-6,0 z"
       sodipodi:nodetypes="caaaccaccaaacaac"
       class="UnoptimicedTransforms" /></g><path
     style="display:none;fill:#000000;fill-opacity:1;fill-rule:evenodd;stroke:none;stroke-width:1.056;stroke-linecap:round;stroke-linejoin:round;stroke-miterlimit:10;stroke-dasharray:none;stroke-opacity:1;paint-order:markers stroke fill"
     d="m 60.465118,78.124962 c 0.325306,-0.06493 0.984118,-0.196438 1.440202,-0.451969 0.456084,-0.255531 0.7232,-0.648838 0.957751,-0.996558 0.234551,-0.34772 0.453142,-0.674305 0.531114,-1.184203 0.07797,-0.509898 0.01314,-1.227312 -0.141672,-1.773061 -0.154808,-0.545749 -0.420716,-0.995508 -0.721117,-1.338596 -0.300401,-0.343087 -0.667797,-0.634478 -1.075347,-0.843116 -0.407551,-0.208638 -0.868933,-0.33837 -1.447741,-0.406884 -0.578807,-0.06851 -1.299412,-0.08266 -1.874441,0.002 -0.57503,0.08471 -1.013614,0.272175 -1.546562,0.583762 -0.532949,0.311588 -1.187874,0.76093 -1.678452,0.994179 -0.490578,0.233249 -0.897998,0.262875 -1.28099,0.101834 -0.382992,-0.16104 -0.887769,-0.502116 -1.039696,-0.421773 -0.151927,0.08034 0.06135,0.612962 0.384409,1.014594 0.323057,0.401631 0.806278,0.747998 1.268953,0.850466 0.462674,0.102467 0.979884,0.01889 1.460061,-0.131549 0.480176,-0.150439 1.000582,-0.398742 1.332878,-0.438268 0.332297,-0.03953 0.439503,0.01408 0.614909,0.101792 -0.205368,0.280943 -0.43027,0.588607 -0.511233,0.971115 -0.08096,0.382508 -0.0595,0.840975 0.144688,1.441693 0.204191,0.600719 0.55192,1.044937 0.714819,1.188517 0.162899,0.14358 0.646238,0.398968 0.888777,0.507906 0.242538,0.108939 0.424118,0.161634 0.617037,0.199609 0.192919,0.03797 0.417487,0.06605 0.526916,0.07972 0.109428,0.01368 0.109431,0.01368 0.434737,-0.05126 z m 14.4485,0 c -0.325306,-0.06493 -0.984118,-0.196438 -1.440202,-0.451969 -0.456084,-0.255531 -0.7232,-0.648838 -0.957751,-0.996558 -0.234551,-0.34772 -0.453142,-0.674305 -0.531114,-1.184203 -0.07797,-0.509898 -0.01314,-1.227312 0.141672,-1.773061 0.154808,-0.545749 0.420716,-0.995508 0.721117,-1.338596 0.300401,-0.343087 0.667797,-0.634478 1.075347,-0.843116 0.407551,-0.208638 0.868933,-0.33837 1.447741,-0.406884 0.578807,-0.06851 1.299412,-0.08266 1.874441,0.002 0.57503,0.08471 1.013614,0.272175 1.546562,0.583762 0.532949,0.311588 1.187874,0.76093 1.678452,0.994179 0.490578,0.233249 0.897998,0.262875 1.28099,0.101834 0.382992,-0.16104 0.887769,-0.502116 1.039696,-0.421773 0.151927,0.08034 -0.06135,0.612962 -0.384409,1.014594 -0.323057,0.401631 -0.806278,0.747998 -1.268953,0.850466 -0.462674,0.102467 -0.979884,0.01889 -1.460061,-0.131549 -0.480176,-0.150439 -1.000582,-0.398742 -1.332878,-0.438268 -0.332297,-0.03953 -0.439503,0.01408 -0.614909,0.101792 0.205368,0.280943 0.43027,0.588607 0.511233,0.971115 0.08096,0.382508 0.0595,0.840975 -0.144688,1.441693 -0.204191,0.600719 -0.55192,1.044937 -0.714819,1.188517 -0.162899,0.14358 -0.646238,0.398968 -0.888777,0.507906 -0.242538,0.108939 -0.424118,0.161634 -0.617037,0.199609 -0.192919,0.03797 -0.417487,0.06605 -0.526916,0.07972 -0.109428,0.01368 -0.109431,0.01368 -0.434737,-0.05126 z"
     id="path38873-4"
     inkscape:path-effect="#path-effect38875-6;#path-effect38877-0"
     inkscape:original-d="m 60.139812,78.189896 c 0.650673,-0.129562 1.309485,-0.261067 1.96312,-0.391855 0.258776,-0.380372 0.525893,-0.773679 0.776097,-1.142739 0.218898,-0.326383 0.43749,-0.652967 0.655775,-0.979755 -0.06241,-0.693235 -0.127245,-1.410649 -0.188058,-2.080897 -0.254002,-0.418295 -0.31301,-0.990378 -0.748355,-1.265771 -0.367414,-0.291369 -0.734809,-0.582761 -1.102188,-0.874173 -0.450495,-0.115962 -0.877484,-0.368012 -1.346097,-0.378495 -0.720609,-0.01394 -1.441214,-0.02809 -2.161814,-0.04245 -0.433396,0.174344 -0.930556,0.224771 -1.28609,0.549722 -0.634895,0.463361 -1.269763,0.941936 -1.946992,1.335825 -0.336337,0.03272 -0.721814,0.364113 -1.005563,0.07312 -0.504807,-0.34103 -1.009584,-0.682105 -1.51433,-1.023226 0.215402,0.495962 0.230586,1.107907 0.605238,1.511449 0.411094,0.387557 0.691626,1.016698 1.341842,0.961816 0.560488,0.155059 1.09624,0.186226 1.537642,-0.248471 0.461034,-0.221756 0.872523,-0.698333 1.40312,-0.669473 0.279701,0.04963 0.526218,0.263132 0.526218,0.263132 0,0 -0.429971,0.588826 -0.616105,0.842829 0.02416,0.510782 0.04562,0.969249 0.07921,1.692228 0.374576,0.478442 0.722305,0.92266 0.875807,1.118829 0.172208,0.09112 0.652038,0.353148 0.979339,0.517464 0.161289,0.04699 0.342867,0.09969 0.510723,0.148212 0.218005,0.02748 0.442573,0.05555 0.661458,0.08268 z"
     sodipodi:nodetypes="scccccccccccccccccccccss"
     class="UnoptimicedTransforms"
     transform="translate(0.043957,0.05963059)" /></svg>
